<svg xmlns="http://www.w3.org/2000/svg" xmlns:xlink="http://www.w3.org/1999/xlink" xmlns:lucid="lucid" width="1858.67" height="1016"><g transform="translate(0 0)" lucid:page-tab-id="0_0"><path d="M0 0h1858.67v1016H0z" fill="#fff"/><path d="M700 535c0-2.76 2.24-5 5-5h270c2.76 0 5 2.24 5 5v286c0 2.76-2.24 5-5 5H705c-2.76 0-5-2.24-5-5z" fill="#fff"/><path d="M700 530h280v40H700z" fill="#ccc"/><path d="M700 535c0-2.76 2.24-5 5-5h270c2.76 0 5 2.24 5 5v286c0 2.76-2.24 5-5 5H705c-2.76 0-5-2.24-5-5zM700 570h280M840 570v256" stroke="#333" fill="none"/><use xlink:href="#a" transform="matrix(1,0,0,1,710,530) translate(0 23.6)"/><use xlink:href="#b" transform="matrix(1,0,0,1,705,572.5) translate(0 17.1)"/><use xlink:href="#c" transform="matrix(1,0,0,1,845,572.5) translate(0 17.1)"/><use xlink:href="#d" transform="matrix(1,0,0,1,705,604.5) translate(0 17.1)"/><use xlink:href="#e" transform="matrix(1,0,0,1,845,604.5) translate(0 17.1)"/><use xlink:href="#f" transform="matrix(1,0,0,1,705,636.5) translate(0 17.1)"/><use xlink:href="#e" transform="matrix(1,0,0,1,845,636.5) translate(0 17.1)"/><use xlink:href="#g" transform="matrix(1,0,0,1,705,668.5) translate(0 17.1)"/><use xlink:href="#e" transform="matrix(1,0,0,1,845,668.5) translate(0 17.1)"/><use xlink:href="#h" transform="matrix(1,0,0,1,705,700.5) translate(0 17.1)"/><use xlink:href="#e" transform="matrix(1,0,0,1,845,700.5) translate(0 17.1)"/><use xlink:href="#i" transform="matrix(1,0,0,1,705,732.5) translate(0 17.1)"/><use xlink:href="#j" transform="matrix(1,0,0,1,845,732.5) translate(0 17.1)"/><use xlink:href="#k" transform="matrix(1,0,0,1,705,764.5) translate(0 17.1)"/><use xlink:href="#e" transform="matrix(1,0,0,1,845,764.5) translate(0 17.1)"/><use xlink:href="#l" transform="matrix(1,0,0,1,705,796.5) translate(0 17.1)"/><use xlink:href="#m" transform="matrix(1,0,0,1,845,796.5) translate(0 17.1)"/><path d="M280 143.3c0-2.77 2.24-5 5-5h270c2.76 0 5 2.23 5 5v126c0 2.75-2.24 5-5 5H285c-2.76 0-5-2.25-5-5z" fill="#fff"/><path d="M280 138.3h280v40H280z" fill="#ccc"/><path d="M280 143.3c0-2.77 2.24-5 5-5h270c2.76 0 5 2.23 5 5v126c0 2.75-2.24 5-5 5H285c-2.76 0-5-2.25-5-5zM280 178.3h280M420 178.3v96" stroke="#333" fill="none"/><use xlink:href="#n" transform="matrix(1,0,0,1,290,138.2888059891411) translate(0 23.6)"/><use xlink:href="#b" transform="matrix(1,0,0,1,285,180.7888059891411) translate(0 17.1)"/><use xlink:href="#c" transform="matrix(1,0,0,1,425,180.7888059891411) translate(0 17.1)"/><use xlink:href="#o" transform="matrix(1,0,0,1,285,212.7888059891411) translate(0 17.1)"/><use xlink:href="#p" transform="matrix(1,0,0,1,425,212.7888059891411) translate(0 17.1)"/><use xlink:href="#q" transform="matrix(1,0,0,1,285,244.7888059891411) translate(0 17.1)"/><use xlink:href="#p" transform="matrix(1,0,0,1,425,244.7888059891411) translate(0 17.1)"/><path d="M160 325c0-2.76 2.24-5 5-5h309.5c2.76 0 5 2.24 5 5v542c0 2.76-2.24 5-5 5H165c-2.76 0-5-2.24-5-5z" fill="#fff"/><path d="M160 320h319.5v40H160z" fill="#ccc"/><path d="M160 325c0-2.76 2.24-5 5-5h309.5c2.76 0 5 2.24 5 5v542c0 2.76-2.24 5-5 5H165c-2.76 0-5-2.24-5-5zM160 360h319.5M336.83 360v512" stroke="#333" fill="none"/><use xlink:href="#r" transform="matrix(1,0,0,1,170,320) translate(0 23.6)"/><use xlink:href="#b" transform="matrix(1,0,0,1,165,362.5) translate(0 17.1)"/><use xlink:href="#c" transform="matrix(1,0,0,1,341.83333333333337,362.5) translate(0 17.1)"/><use xlink:href="#q" transform="matrix(1,0,0,1,165,394.5) translate(0 17.1)"/><use xlink:href="#p" transform="matrix(1,0,0,1,341.83333333333337,394.5) translate(0 17.1)"/><use xlink:href="#s" transform="matrix(1,0,0,1,165,426.5) translate(0 17.1)"/><use xlink:href="#t" transform="matrix(1,0,0,1,341.83333333333337,426.5) translate(0 17.1)"/><use xlink:href="#u" transform="matrix(1,0,0,1,165,458.5) translate(0 17.1)"/><use xlink:href="#v" transform="matrix(1,0,0,1,341.83333333333337,458.5) translate(0 17.1)"/><use xlink:href="#w" transform="matrix(1,0,0,1,165,490.5) translate(0 17.1)"/><use xlink:href="#t" transform="matrix(1,0,0,1,341.83333333333337,490.5) translate(0 17.1)"/><use xlink:href="#x" transform="matrix(1,0,0,1,165,522.5) translate(0 17.1)"/><use xlink:href="#m" transform="matrix(1,0,0,1,341.83333333333337,522.5) translate(0 17.1)"/><use xlink:href="#y" transform="matrix(1,0,0,1,165,554.5) translate(0 17.1)"/><use xlink:href="#t" transform="matrix(1,0,0,1,341.83333333333337,554.5) translate(0 17.1)"/><use xlink:href="#z" transform="matrix(1,0,0,1,165,586.5) translate(0 17.1)"/><use xlink:href="#t" transform="matrix(1,0,0,1,341.83333333333337,586.5) translate(0 17.1)"/><use xlink:href="#A" transform="matrix(1,0,0,1,165,618.5) translate(0 17.1)"/><use xlink:href="#B" transform="matrix(1,0,0,1,341.83333333333337,618.5) translate(0 17.1)"/><use xlink:href="#C" transform="matrix(1,0,0,1,165,650.5) translate(0 17.1)"/><use xlink:href="#D" transform="matrix(1,0,0,1,341.83333333333337,650.5) translate(0 17.1)"/><use xlink:href="#E" transform="matrix(1,0,0,1,165,682.5) translate(0 17.1)"/><use xlink:href="#D" transform="matrix(1,0,0,1,341.83333333333337,682.5) translate(0 17.1)"/><use xlink:href="#F" transform="matrix(1,0,0,1,165,714.5) translate(0 17.1)"/><use xlink:href="#G" transform="matrix(1,0,0,1,341.83333333333337,714.5) translate(0 17.1)"/><use xlink:href="#H" transform="matrix(1,0,0,1,165,746.5) translate(0 17.1)"/><use xlink:href="#G" transform="matrix(1,0,0,1,341.83333333333337,746.5) translate(0 17.1)"/><use xlink:href="#I" transform="matrix(1,0,0,1,165,778.5) translate(0 17.1)"/><use xlink:href="#t" transform="matrix(1,0,0,1,341.83333333333337,778.5) translate(0 17.1)"/><use xlink:href="#J" transform="matrix(1,0,0,1,165,810.5) translate(0 17.1)"/><use xlink:href="#K" transform="matrix(1,0,0,1,341.83333333333337,810.5) translate(0 17.1)"/><use xlink:href="#L" transform="matrix(1,0,0,1,165,842.5) translate(0 17.1)"/><use xlink:href="#t" transform="matrix(1,0,0,1,341.83333333333337,842.5) translate(0 17.1)"/><path d="M479.5 28c0-4.42 3.58-8 8-8h836.75c4.42 0 8 3.58 8 8v60.3c0 4.4-3.58 8-8 8H487.5c-4.42 0-8-3.6-8-8z" stroke="#000" stroke-opacity="0" stroke-width="2" fill="#fff" fill-opacity="0"/><use xlink:href="#M" transform="matrix(1,0,0,1,483.5,24) translate(295.6458024691358 38.75152777777778)"/><use xlink:href="#N" transform="matrix(1,0,0,1,483.5,24) translate(372.7828395061728 38.75152777777778)"/><use xlink:href="#O" transform="matrix(1,0,0,1,483.5,24) translate(439.6495061728395 38.75152777777778)"/><path d="M655 93.8h505.85M655 93.8h-1M1160.82 93.8h1.03" stroke="#a9afb8" stroke-width="2" fill="none"/><path d="M479.5 68c0-4.42 3.58-8 8-8h837.7c4.43 0 8 3.58 8 8v2.84c0 4.42-3.57 8-8 8H487.5c-4.42 0-8-3.58-8-8z" stroke="#000" stroke-opacity="0" stroke-width="2" fill="#fff" fill-opacity="0"/><use xlink:href="#P" transform="matrix(1,0,0,1,483.5,63.999999999999986) translate(319.0022325102881 14.917037037037037)"/><use xlink:href="#Q" transform="matrix(1,0,0,1,483.5,63.999999999999986) translate(354.60861111111114 14.917037037037037)"/><use xlink:href="#R" transform="matrix(1,0,0,1,483.5,63.999999999999986) translate(383.50161522633744 14.917037037037037)"/><use xlink:href="#S" transform="matrix(1,0,0,1,483.5,63.999999999999986) translate(409.8452366255144 14.917037037037037)"/><use xlink:href="#T" transform="matrix(1,0,0,1,483.5,63.999999999999986) translate(422.2947222222222 14.917037037037037)"/><use xlink:href="#U" transform="matrix(1,0,0,1,483.5,63.999999999999986) translate(474.132170781893 14.917037037037037)"/><use xlink:href="#V" transform="matrix(1,0,0,1,483.5,63.999999999999986) translate(499.6259979423868 14.917037037037037)"/><path d="M139.5 408H112c-6.63 0-12 5.37-12 12v452c0 6.63 5.37 12 12 12h535.5c6.63 0 12-5.37 12-12V598c0-6.63 5.37-12 12-12h8.6" stroke="#333" fill="none"/><path d="M139.5 398v20M159.5 408h-20M699.28 596l-20-10 20-10M699.28 586h-20" stroke="#333" fill="#fff"/><path d="M679.5 586c-.55 0-1-.45-1-1V312c0-6.63-5.37-12-12-12h-415c-6.63 0-12-5.37-12-12v-17.7c0-6.64 5.37-12 12-12h8.6" stroke="#333" fill="none"/><path d="M679.5 576v20M699.5 586h-20M279.28 268.3l-20-10 20-10M279.28 258.3h-20" stroke="#333" fill="#fff"/><path d="M259.5 226.3h-128c-6.63 0-12 5.36-12 12V364c0 6.63 5.37 12 12 12h8.6" stroke="#333" fill="none"/><path d="M259.5 216.3v20M279.5 226.3h-20M159.28 386l-20-10 20-10M159.28 376h-20" stroke="#333" fill="#fff"/><path d="M-60 602c0-4.42 3.58-8 8-8h224c4.42 0 8 3.58 8 8v44c0 4.42-3.58 8-8 8H-52c-4.42 0-8-3.58-8-8z" stroke="#000" stroke-opacity="0" fill="#fff" fill-opacity="0"/><use xlink:href="#W" transform="matrix(1,0,0,1,-55,599) translate(98.525 30.025)"/><path d="M500 602c0-4.42 3.58-8 8-8h224c4.42 0 8 3.58 8 8v44c0 4.42-3.58 8-8 8H508c-4.42 0-8-3.58-8-8z" stroke="#000" stroke-opacity="0" fill="#fff" fill-opacity="0"/><use xlink:href="#X" transform="matrix(1,0,0,1,505,599) translate(110 30.025)"/><path d="M-40 502c0-4.42 3.58-8 8-8h224c4.42 0 8 3.58 8 8v44c0 4.42-3.58 8-8 8H-32c-4.42 0-8-3.58-8-8z" stroke="#000" stroke-opacity="0" fill="#fff" fill-opacity="0"/><use xlink:href="#W" transform="matrix(1,0,0,1,-35,499) translate(98.525 30.025)"/><path d="M-40 308c0-4.42 3.58-8 8-8h224c4.42 0 8 3.58 8 8v44c0 4.42-3.58 8-8 8H-32c-4.42 0-8-3.58-8-8z" stroke="#000" stroke-opacity="0" fill="#fff" fill-opacity="0"/><use xlink:href="#W" transform="matrix(1,0,0,1,-35,305) translate(98.525 30.025)"/><path d="M80 268c0-4.42 3.58-8 8-8h224c4.42 0 8 3.58 8 8v44c0 4.42-3.58 8-8 8H88c-4.42 0-8-3.58-8-8z" stroke="#000" stroke-opacity="0" fill="#fff" fill-opacity="0"/><use xlink:href="#W" transform="matrix(1,0,0,1,85,265) translate(98.525 30.025)"/><path d="M520 468c0-4.42 3.58-8 8-8h224c4.42 0 8 3.58 8 8v44c0 4.42-3.58 8-8 8H528c-4.42 0-8-3.58-8-8z" stroke="#000" stroke-opacity="0" fill="#fff" fill-opacity="0"/><use xlink:href="#W" transform="matrix(1,0,0,1,525,465) translate(98.525 30.025)"/><path d="M280 28c0-4.42 3.58-8 8-8h264c4.42 0 8 3.58 8 8v84.58c0 4.42-3.58 8-8 8H288c-4.42 0-8-3.58-8-8z" stroke="#333" fill="#fff"/><use xlink:href="#Y" transform="matrix(1,0,0,1,285,25) translate(30 28.61875)"/><use xlink:href="#Z" transform="matrix(1,0,0,1,285,25) translate(72.9 28.61875)"/><use xlink:href="#aa" transform="matrix(1,0,0,1,285,25) translate(140.85000000000002 28.61875)"/><use xlink:href="#ab" transform="matrix(1,0,0,1,285,25) translate(160.85000000000002 28.61875)"/><use xlink:href="#ac" transform="matrix(1,0,0,1,285,25) translate(209.8 28.61875)"/><use xlink:href="#ad" transform="matrix(1,0,0,1,285,25) translate(29.999999999999986 50.21875)"/><use xlink:href="#Z" transform="matrix(1,0,0,1,285,25) translate(65.19999999999999 50.21875)"/><use xlink:href="#aa" transform="matrix(1,0,0,1,285,25) translate(133.14999999999998 50.21875)"/><use xlink:href="#ab" transform="matrix(1,0,0,1,285,25) translate(153.14999999999998 50.21875)"/><use xlink:href="#ae" transform="matrix(1,0,0,1,285,25) translate(202.10000000000002 50.21875)"/><use xlink:href="#af" transform="matrix(1,0,0,1,285,25) translate(53.599999999999994 71.81875000000001)"/><use xlink:href="#ag" transform="matrix(1,0,0,1,285,25) translate(125.55 71.81875000000001)"/><path d="M200 902c0-4.42 3.58-8 8-8h204c4.42 0 8 3.58 8 8v44c0 4.42-3.58 8-8 8H208c-4.42 0-8-3.58-8-8z" stroke="#333" fill="#fff"/><use xlink:href="#Y" transform="matrix(1,0,0,1,205,899) translate(26.974999999999994 17.525)"/><use xlink:href="#ah" transform="matrix(1,0,0,1,205,899) translate(69.875 17.525)"/><use xlink:href="#ab" transform="matrix(1,0,0,1,205,899) translate(103.875 17.525)"/><use xlink:href="#ac" transform="matrix(1,0,0,1,205,899) translate(152.825 17.525)"/><use xlink:href="#ad" transform="matrix(1,0,0,1,205,899) translate(24.474999999999994 39.125)"/><use xlink:href="#Z" transform="matrix(1,0,0,1,205,899) translate(59.675 39.125)"/><use xlink:href="#aa" transform="matrix(1,0,0,1,205,899) translate(127.625 39.125)"/><use xlink:href="#ai" transform="matrix(1,0,0,1,205,899) translate(147.625 39.125)"/><path d="M1160 651c0-2.76 2.24-5 5-5h270c2.76 0 5 2.24 5 5v190c0 2.76-2.24 5-5 5h-270c-2.76 0-5-2.24-5-5z" fill="#fff"/><path d="M1160 646h280v40h-280z" fill="#ccc"/><path d="M1160 651c0-2.76 2.24-5 5-5h270c2.76 0 5 2.24 5 5v190c0 2.76-2.24 5-5 5h-270c-2.76 0-5-2.24-5-5zM1160 686h280M1300 686v160" stroke="#333" fill="none"/><use xlink:href="#aj" transform="matrix(1,0,0,1,1170,646) translate(0 23.6)"/><use xlink:href="#b" transform="matrix(1,0,0,1,1165,688.5) translate(0 17.1)"/><use xlink:href="#c" transform="matrix(1,0,0,1,1305,688.5) translate(0 17.1)"/><use xlink:href="#q" transform="matrix(1,0,0,1,1165,720.5) translate(0 17.1)"/><use xlink:href="#p" transform="matrix(1,0,0,1,1305,720.5) translate(0 17.1)"/><use xlink:href="#ak" transform="matrix(1,0,0,1,1165,752.5) translate(0 17.1)"/><use xlink:href="#e" transform="matrix(1,0,0,1,1305,752.5) translate(0 17.1)"/><use xlink:href="#al" transform="matrix(1,0,0,1,1165,784.5) translate(0 17.1)"/><use xlink:href="#j" transform="matrix(1,0,0,1,1305,784.5) translate(0 17.1)"/><use xlink:href="#am" transform="matrix(1,0,0,1,1165,816.5) translate(0 17.1)"/><use xlink:href="#e" transform="matrix(1,0,0,1,1305,816.5) translate(0 17.1)"/><path d="M620 468c0-4.42 3.58-8 8-8h224c4.42 0 8 3.58 8 8v44c0 4.42-3.58 8-8 8H628c-4.42 0-8-3.58-8-8z" stroke="#000" stroke-opacity="0" fill="#fff" fill-opacity="0"/><use xlink:href="#X" transform="matrix(1,0,0,1,625,465) translate(110 30.025)"/><path d="M960 748c0-4.42 3.58-8 8-8h224c4.42 0 8 3.58 8 8v44c0 4.42-3.58 8-8 8H968c-4.42 0-8-3.58-8-8z" stroke="#000" stroke-opacity="0" fill="#fff" fill-opacity="0"/><use xlink:href="#W" transform="matrix(1,0,0,1,965,745) translate(98.525 30.025)"/><path d="M740 902c0-4.42 3.58-8 8-8h204c4.42 0 8 3.58 8 8v44c0 4.42-3.58 8-8 8H748c-4.42 0-8-3.58-8-8z" stroke="#333" fill="#fff"/><use xlink:href="#Y" transform="matrix(1,0,0,1,745,899) translate(21.125 17.525)"/><use xlink:href="#ah" transform="matrix(1,0,0,1,745,899) translate(64.025 17.525)"/><use xlink:href="#ab" transform="matrix(1,0,0,1,745,899) translate(98.025 17.525)"/><use xlink:href="#an" transform="matrix(1,0,0,1,745,899) translate(146.97500000000002 17.525)"/><use xlink:href="#ao" transform="matrix(1,0,0,1,745,899) translate(18.624999999999986 39.125)"/><use xlink:href="#Z" transform="matrix(1,0,0,1,745,899) translate(65.52499999999999 39.125)"/><use xlink:href="#aa" transform="matrix(1,0,0,1,745,899) translate(133.475 39.125)"/><use xlink:href="#ai" transform="matrix(1,0,0,1,745,899) translate(153.47500000000002 39.125)"/><path d="M1520 357c0-2.76 2.24-5 5-5h270c2.76 0 5 2.24 5 5v190c0 2.76-2.24 5-5 5h-270c-2.76 0-5-2.24-5-5z" fill="#fff"/><path d="M1520 352h280v40h-280z" fill="#ccc"/><path d="M1520 357c0-2.76 2.24-5 5-5h270c2.76 0 5 2.24 5 5v190c0 2.76-2.24 5-5 5h-270c-2.76 0-5-2.24-5-5zM1520 392h280M1660 392v160" stroke="#333" fill="none"/><use xlink:href="#ap" transform="matrix(1,0,0,1,1530,352) translate(0 23.6)"/><use xlink:href="#b" transform="matrix(1,0,0,1,1525,394.5) translate(0 17.1)"/><use xlink:href="#c" transform="matrix(1,0,0,1,1665,394.5) translate(0 17.1)"/><use xlink:href="#q" transform="matrix(1,0,0,1,1525,426.5) translate(0 17.1)"/><g><use xlink:href="#p" transform="matrix(1,0,0,1,1665,426.5) translate(0 17.1)"/></g><g><use xlink:href="#aq" transform="matrix(1,0,0,1,1525,458.5) translate(0 17.1)"/></g><g><use xlink:href="#p" transform="matrix(1,0,0,1,1665,458.5) translate(0 17.1)"/></g><g><use xlink:href="#al" transform="matrix(1,0,0,1,1525,490.5) translate(0 17.1)"/></g><g><use xlink:href="#j" transform="matrix(1,0,0,1,1665,490.5) translate(0 17.1)"/></g><g><use xlink:href="#am" transform="matrix(1,0,0,1,1525,522.5) translate(0 17.1)"/></g><g><use xlink:href="#e" transform="matrix(1,0,0,1,1665,522.5) translate(0 17.1)"/></g><path d="M1499.5 472h-368c-6.63 0-12 5.37-12 12v206c0 6.63 5.37 12 12 12h8.6" stroke="#333" fill="none"/><path d="M1499.5 462v20M1519.5 472h-20M1159.28 712l-20-10 20-10M1159.28 702h-20M1200 486c0-4.42 3.58-8 8-8h204c4.42 0 8 3.58 8 8v44c0 4.42-3.58 8-8 8h-204c-4.42 0-8-3.58-8-8z" stroke="#333" fill="#fff"/><g><use xlink:href="#ao" transform="matrix(1,0,0,1,1205,483.0000000000001) translate(17.124999999999986 17.525)"/><use xlink:href="#ah" transform="matrix(1,0,0,1,1205,483.0000000000001) translate(64.02499999999999 17.525)"/><use xlink:href="#ab" transform="matrix(1,0,0,1,1205,483.0000000000001) translate(98.02499999999999 17.525)"/><use xlink:href="#ar" transform="matrix(1,0,0,1,1205,483.0000000000001) translate(146.97500000000002 17.525)"/><use xlink:href="#as" transform="matrix(1,0,0,1,1205,483.0000000000001) translate(14.624999999999986 39.125)"/><use xlink:href="#Z" transform="matrix(1,0,0,1,1205,483.0000000000001) translate(65.52499999999999 39.125)"/><use xlink:href="#aa" transform="matrix(1,0,0,1,1205,483.0000000000001) translate(133.475 39.125)"/><use xlink:href="#at" transform="matrix(1,0,0,1,1205,483.0000000000001) translate(153.47500000000002 39.125)"/></g><path d="M1380 486c0-4.42 3.58-8 8-8h204c4.42 0 8 3.58 8 8v44c0 4.42-3.58 8-8 8h-204c-4.42 0-8-3.58-8-8z" stroke="#000" stroke-opacity="0" fill="#fff" fill-opacity="0"/><g><use xlink:href="#W" transform="matrix(1,0,0,1,1385,483.0000000000001) translate(88.525 30.025)"/></g><path d="M1040 594c0-4.42 3.58-8 8-8h224c4.42 0 8 3.58 8 8v44c0 4.42-3.58 8-8 8h-224c-4.42 0-8-3.58-8-8z" stroke="#000" stroke-opacity="0" fill="#fff" fill-opacity="0"/><g><use xlink:href="#X" transform="matrix(1,0,0,1,1045,591) translate(110 30.025)"/></g><path d="M1499.5 440c-.55 0-1-.45-1-1V312c0-6.63-5.37-12-12-12H710.67c-6.63 0-12 5.37-12 12v262.6" stroke="#333" fill="none"/><path d="M1499.5 430v20M1519.5 440h-20M688.67 593.78l10-20 10 20M698.67 593.78v-20M1000 240c0-4.42 3.58-8 8-8h204c4.42 0 8 3.58 8 8v44c0 4.42-3.58 8-8 8h-204c-4.42 0-8-3.58-8-8z" stroke="#333" fill="#fff"/><g><use xlink:href="#Y" transform="matrix(1,0,0,1,1005,237) translate(19.125 17.525)"/><use xlink:href="#ah" transform="matrix(1,0,0,1,1005,237) translate(62.025000000000006 17.525)"/><use xlink:href="#ab" transform="matrix(1,0,0,1,1005,237) translate(96.025 17.525)"/><use xlink:href="#ar" transform="matrix(1,0,0,1,1005,237) translate(144.97500000000002 17.525)"/><use xlink:href="#as" transform="matrix(1,0,0,1,1005,237) translate(16.624999999999986 39.125)"/><use xlink:href="#Z" transform="matrix(1,0,0,1,1005,237) translate(67.52499999999999 39.125)"/><use xlink:href="#aa" transform="matrix(1,0,0,1,1005,237) translate(135.475 39.125)"/><use xlink:href="#ai" transform="matrix(1,0,0,1,1005,237) translate(155.47500000000002 39.125)"/></g><path d="M1333.2 368c0-4.42 3.6-8 8-8h224c4.43 0 8 3.58 8 8v44c0 4.42-3.57 8-8 8h-224c-4.4 0-8-3.58-8-8z" stroke="#000" stroke-opacity="0" fill="#fff" fill-opacity="0"/><g><use xlink:href="#W" transform="matrix(1,0,0,1,1338.2068944293133,365) translate(98.525 30.025)"/></g><path d="M1139.5 734h-8c-6.63 0-12 5.4-12 12v122c0 6.63-5.37 12-12 12h-436c-6.63 0-12-5.37-12-12V598c0-6.63 5.37-12 12-12h8.6" stroke="#333" fill="none"/><path d="M1139.5 724v20M1159.5 734h-20M699.28 596l-20-10 20-10M699.28 586h-20" stroke="#333" fill="#fff"/><defs><path fill="#333" d="M76-105c-23 59 45 89 88 55 12-10 18-24 22-45l30-153h51C238-143 259 4 118 4 48 4 11-39 25-112l26-136h52" id="au"/><path fill="#333" d="M144-137c-1-29-70-35-71-2 16 41 103 10 103 80C176 9 79 16 32-9 18-17 9-31 4-48l44-6c3 32 80 36 82 1-15-42-103-11-103-82 0-77 157-79 161-8" id="av"/><path fill="#333" d="M114-194c63-2 87 48 72 110H63c-3 28 1 55 31 54 21-1 32-13 37-29l44 13C160-14 137 4 91 4 41 4 11-22 11-73c0-71 33-119 103-121zm30 77c14-47-50-61-67-22-3 6-6 13-8 22h75" id="aw"/><path fill="#333" d="M84-151c13-25 34-51 72-40l-8 41C67-170 71-64 56 0H6l36-190h47" id="ax"/><g id="a"><use transform="matrix(0.05,0,0,0.05,0,0)" xlink:href="#au"/><use transform="matrix(0.05,0,0,0.05,12.950000000000001,0)" xlink:href="#av"/><use transform="matrix(0.05,0,0,0.05,22.950000000000003,0)" xlink:href="#aw"/><use transform="matrix(0.05,0,0,0.05,32.95,0)" xlink:href="#ax"/></g><path fill="#333" d="M50-231l6-30h32l-6 30H50zM6 0l37-190h31L37 0H6" id="ay"/><path fill="#333" d="M133-28C103 26-5 8 13-77c13-62 24-115 90-117 29-1 46 15 56 35l19-102h32L160 0h-30zM45-64c-2 27 10 43 35 43 54-1 69-50 69-103 0-29-15-46-42-46-53-1-58 58-62 106" id="az"/><g id="b"><use transform="matrix(0.05,0,0,0.05,0,0)" xlink:href="#ay"/><use transform="matrix(0.05,0,0,0.05,3.95,0)" xlink:href="#az"/></g><path fill="#333" d="M67-158c22-48 132-52 116 29L158 0h-32l25-140c3-38-53-32-70-12C52-117 51-52 38 0H6l36-190h30" id="aA"/><path fill="#333" d="M51-54c-9 22 5 41 31 30L79-1C43 14 10-4 19-52l22-115H19l5-23h22l19-43h21l-9 43h35l-4 23H73" id="aB"/><path fill="#333" d="M111-194c62-3 86 47 72 106H45c-7 38 6 69 45 68 27-1 43-14 53-32l24 11C152-15 129 4 87 4 38 3 12-23 12-71c0-70 32-119 99-123zm44 81c14-66-71-72-95-28-4 8-8 17-11 28h106" id="aC"/><path fill="#333" d="M103-194c29 0 47 14 56 36 2-11 5-23 8-32h30L160-5C157 61 82 97 21 62 9 55 4 45 1 30l28-7c7 42 83 31 92-3 4-16 9-38 13-55-13 20-29 36-62 36-40 0-60-25-60-64 0-71 23-131 91-131zm4 24c-53 0-58 54-61 104-2 27 10 44 36 44 49 0 65-50 67-102 1-29-15-46-42-46" id="aD"/><path fill="#333" d="M66-151c12-25 30-51 66-40l-6 26C45-176 58-65 38 0H6l36-190h30" id="aE"/><g id="c"><use transform="matrix(0.05,0,0,0.05,0,0)" xlink:href="#ay"/><use transform="matrix(0.05,0,0,0.05,3.95,0)" xlink:href="#aA"/><use transform="matrix(0.05,0,0,0.05,13.949999999999998,0)" xlink:href="#aB"/><use transform="matrix(0.05,0,0,0.05,18.95,0)" xlink:href="#aC"/><use transform="matrix(0.05,0,0,0.05,28.950000000000003,0)" xlink:href="#aD"/><use transform="matrix(0.05,0,0,0.05,38.95,0)" xlink:href="#aC"/><use transform="matrix(0.05,0,0,0.05,48.95,0)" xlink:href="#aE"/></g><path fill="#333" d="M76-167L44 0H12l33-167H18l4-23h27c3-47 25-81 82-69l-4 24c-35-8-44 15-46 45h37l-5 23H76" id="aF"/><path fill="#333" d="M55-144c13 50 104 24 104 88C159 21 15 23 1-39l26-10c6 40 102 42 102-4-13-50-104-23-104-87 0-71 143-71 148-8l-29 4c-5-35-85-37-89 0" id="aG"/><path fill="#333" d="M173 0L80-213 41 0H11l48-248h37l94 214 40-214h30L212 0h-39" id="aH"/><path fill="#333" d="M165-48c-4 18 1 34 23 27l-3 20c-29 8-62 0-52-35h-2C116-14 99 4 63 4 30 4 8-16 8-49c0-68 71-67 138-67 10-26 0-56-31-54-26 1-42 9-47 31l-32-5c8-67 160-71 144 15-5 28-9 54-15 81zM42-50c3 52 80 24 89-6 7-12 7-24 11-38-47 1-103-4-100 44" id="aI"/><path fill="#333" d="M248-111c6-24 9-61-24-58-72 9-57 108-77 169h-31l26-142c3-37-50-30-64-10C52-115 50-51 37 0H6l36-190h30c-1 10-6 24-4 32 13-43 101-52 105 5 13-22 29-41 61-41 90 0 28 129 23 194h-31" id="aJ"/><g id="d"><use transform="matrix(0.05,0,0,0.05,0,0)" xlink:href="#aF"/><use transform="matrix(0.05,0,0,0.05,5,0)" xlink:href="#ay"/><use transform="matrix(0.05,0,0,0.05,8.95,0)" xlink:href="#aE"/><use transform="matrix(0.05,0,0,0.05,14.899999999999999,0)" xlink:href="#aG"/><use transform="matrix(0.05,0,0,0.05,23.9,0)" xlink:href="#aB"/><use transform="matrix(0.05,0,0,0.05,28.899999999999995,0)" xlink:href="#aH"/><use transform="matrix(0.05,0,0,0.05,41.85,0)" xlink:href="#aI"/><use transform="matrix(0.05,0,0,0.05,51.85,0)" xlink:href="#aJ"/><use transform="matrix(0.05,0,0,0.05,66.8,0)" xlink:href="#aC"/></g><g id="e"><use transform="matrix(0.05,0,0,0.05,0,0)" xlink:href="#aG"/><use transform="matrix(0.05,0,0,0.05,9,0)" xlink:href="#aB"/><use transform="matrix(0.05,0,0,0.05,14,0)" xlink:href="#aE"/><use transform="matrix(0.05,0,0,0.05,19.95,0)" xlink:href="#ay"/><use transform="matrix(0.05,0,0,0.05,23.9,0)" xlink:href="#aA"/><use transform="matrix(0.05,0,0,0.05,33.9,0)" xlink:href="#aD"/></g><path fill="#333" d="M6 0l50-261h32L37 0H6" id="aK"/><g id="f"><use transform="matrix(0.05,0,0,0.05,0,0)" xlink:href="#aK"/><use transform="matrix(0.05,0,0,0.05,3.95,0)" xlink:href="#aI"/><use transform="matrix(0.05,0,0,0.05,13.949999999999998,0)" xlink:href="#aG"/><use transform="matrix(0.05,0,0,0.05,22.95,0)" xlink:href="#aB"/><use transform="matrix(0.05,0,0,0.05,27.950000000000003,0)" xlink:href="#aH"/><use transform="matrix(0.05,0,0,0.05,40.9,0)" xlink:href="#aI"/><use transform="matrix(0.05,0,0,0.05,50.9,0)" xlink:href="#aJ"/><use transform="matrix(0.05,0,0,0.05,65.85,0)" xlink:href="#aC"/></g><g id="g"><use transform="matrix(0.05,0,0,0.05,0,0)" xlink:href="#aC"/><use transform="matrix(0.05,0,0,0.05,10,0)" xlink:href="#aJ"/><use transform="matrix(0.05,0,0,0.05,24.950000000000003,0)" xlink:href="#aI"/><use transform="matrix(0.05,0,0,0.05,34.95,0)" xlink:href="#ay"/><use transform="matrix(0.05,0,0,0.05,38.900000000000006,0)" xlink:href="#aK"/></g><path fill="#333" d="M67-162c32-53 139-36 121 50C175-51 163 2 97 4 68 4 52-11 42-31 38 6 28 39 22 75H-9l50-265h29c-1 10 0 20-3 28zm89 36c0-26-10-43-35-43-54 0-67 50-69 103-1 29 14 45 42 46 53 0 62-58 62-106" id="aL"/><path fill="#333" d="M188 0h-37l-8-164L71 0H34L18-190h31l8 164 75-164h34l8 164 74-164h31" id="aM"/><path fill="#333" d="M30-147c31-64 166-65 159 27C183-49 158 1 86 4 9 8 1-88 30-147zM88-20c53 0 68-48 68-100 0-31-11-51-44-50-52 1-68 46-68 97 0 32 13 53 44 53" id="aN"/><g id="h"><use transform="matrix(0.05,0,0,0.05,0,0)" xlink:href="#aL"/><use transform="matrix(0.05,0,0,0.05,10,0)" xlink:href="#aI"/><use transform="matrix(0.05,0,0,0.05,20,0)" xlink:href="#aG"/><use transform="matrix(0.05,0,0,0.05,29,0)" xlink:href="#aG"/><use transform="matrix(0.05,0,0,0.05,38,0)" xlink:href="#aM"/><use transform="matrix(0.05,0,0,0.05,50.95,0)" xlink:href="#aN"/><use transform="matrix(0.05,0,0,0.05,60.95,0)" xlink:href="#aE"/><use transform="matrix(0.05,0,0,0.05,66.9,0)" xlink:href="#az"/></g><path fill="#333" d="M68-162c25-46 127-43 121 31C183-60 169 1 98 4 69 5 53-11 43-31L36 0H5l52-261h31zm88 36c2-27-9-43-34-43-55 0-70 51-70 103 0 29 15 45 43 46 52 0 58-58 61-106" id="aO"/><path fill="#333" d="M67 3c-93-2-31-127-26-193h32L48-50c-3 39 53 32 70 12 30-34 30-101 43-152h32L157 0h-30c1-10 6-24 4-33-14 20-29 37-64 36" id="aP"/><path fill="#333" d="M222 0l43-216c-8 16-17 34-26 49L143 0h-22L81-216 41 0H11l48-248h42l38 208 116-208h45L252 0h-30" id="aQ"/><g id="i"><use transform="matrix(0.05,0,0,0.05,0,0)" xlink:href="#aI"/><use transform="matrix(0.05,0,0,0.05,10,0)" xlink:href="#aO"/><use transform="matrix(0.05,0,0,0.05,20,0)" xlink:href="#aN"/><use transform="matrix(0.05,0,0,0.05,30,0)" xlink:href="#aP"/><use transform="matrix(0.05,0,0,0.05,40,0)" xlink:href="#aB"/><use transform="matrix(0.05,0,0,0.05,45,0)" xlink:href="#aQ"/><use transform="matrix(0.05,0,0,0.05,59.95,0)" xlink:href="#aC"/></g><path fill="#333" d="M124 0L87-78 21 0h-35l86-98-46-92h33l34 74 61-74h37l-83 92 50 98h-34" id="aR"/><g id="j"><use transform="matrix(0.05,0,0,0.05,0,0)" xlink:href="#aB"/><use transform="matrix(0.05,0,0,0.05,5,0)" xlink:href="#aC"/><use transform="matrix(0.05,0,0,0.05,15,0)" xlink:href="#aR"/><use transform="matrix(0.05,0,0,0.05,24,0)" xlink:href="#aB"/></g><g id="k"><use transform="matrix(0.05,0,0,0.05,0,0)" xlink:href="#aD"/><use transform="matrix(0.05,0,0,0.05,10,0)" xlink:href="#aC"/><use transform="matrix(0.05,0,0,0.05,20,0)" xlink:href="#aA"/><use transform="matrix(0.05,0,0,0.05,30,0)" xlink:href="#az"/><use transform="matrix(0.05,0,0,0.05,40,0)" xlink:href="#aC"/><use transform="matrix(0.05,0,0,0.05,50,0)" xlink:href="#aE"/></g><path fill="#333" d="M20-101c0-91 52-143 145-150 126-9 127 168 53 223-23 17-55 32-93 32C57 4 20-33 20-101zm216-33c5-57-18-91-73-90-77 1-110 51-110 125 0 49 23 75 73 75 72-1 104-45 110-110" id="aS"/><path fill="#333" d="M219-77C219 17 104-2 11 0l48-248c73 2 169-15 169 57 0 38-24 54-60 60 29 5 51 21 51 54zm-26-111c0-44-62-31-105-33l-16 79c55 0 121 9 121-46zm-7 110c-1-49-69-36-119-38L50-27c61-1 137 12 136-51" id="aT"/><path fill="#333" d="M67-158c15-20 31-36 64-36 94 0 33 127 27 194h-32l25-140c3-38-53-32-70-12C52-117 51-51 37 0H6l51-261h31" id="aU"/><g id="l"><use transform="matrix(0.05,0,0,0.05,0,0)" xlink:href="#az"/><use transform="matrix(0.05,0,0,0.05,10,0)" xlink:href="#aI"/><use transform="matrix(0.05,0,0,0.05,20,0)" xlink:href="#aB"/><use transform="matrix(0.05,0,0,0.05,25,0)" xlink:href="#aC"/><use transform="matrix(0.05,0,0,0.05,35,0)" xlink:href="#aS"/><use transform="matrix(0.05,0,0,0.05,49,0)" xlink:href="#aF"/><use transform="matrix(0.05,0,0,0.05,54,0)" xlink:href="#aT"/><use transform="matrix(0.05,0,0,0.05,66,0)" xlink:href="#ay"/><use transform="matrix(0.05,0,0,0.05,69.95,0)" xlink:href="#aE"/><use transform="matrix(0.05,0,0,0.05,75.9,0)" xlink:href="#aB"/><use transform="matrix(0.05,0,0,0.05,80.9,0)" xlink:href="#aU"/></g><g id="m"><use transform="matrix(0.05,0,0,0.05,0,0)" xlink:href="#aG"/><use transform="matrix(0.05,0,0,0.05,9,0)" xlink:href="#aB"/><use transform="matrix(0.05,0,0,0.05,14,0)" xlink:href="#aE"/><use transform="matrix(0.05,0,0,0.05,19.95,0)" xlink:href="#ay"/><use transform="matrix(0.05,0,0,0.05,23.9,0)" xlink:href="#aA"/><use transform="matrix(0.05,0,0,0.05,33.9,0)" xlink:href="#aD"/></g><path fill="#333" d="M241-173c-1 82-78 91-166 86L58 0H6l48-248c87 0 188-12 187 75zm-53 2c0-43-48-36-90-36l-15 80c50 0 105 7 105-44" id="aV"/><path fill="#333" d="M166-52c-4 17 5 29 24 23l-3 27c-30 11-74 1-67-34C105-15 91 4 56 4 23 4 3-15 2-49c0-64 63-67 128-67 10-22 3-53-29-45-13 3-22 10-25 24l-46-5c5-64 156-77 153 0-1 33-11 60-17 90zM97-88c-44-9-64 57-19 57 31 0 42-28 47-57H97" id="aW"/><path fill="#333" d="M72-63c-8 23 5 39 32 30L98-1C54 14 12-6 23-64l18-93H15l7-33h28l24-45h31l-8 45h35l-6 33H90" id="aX"/><path fill="#333" d="M50-224l7-37h49l-7 37H50zM6 0l37-190h49L55 0H6" id="aY"/><path fill="#333" d="M67-101c-8 29-7 73 27 71 23-2 32-16 39-37l48 9C170-19 141 4 91 4 36 4 7-28 12-86c6-75 61-124 140-103 26 7 40 29 43 59l-50 4c-1-20-9-34-29-34-35 0-41 29-49 59" id="aZ"/><path fill="#333" d="M156-122c2-23-7-37-28-37-47 0-58 44-58 89 0 24 12 40 36 40 43 0 47-49 50-92zM-8 75l50-265h48c0 10-3 24-3 30 22-50 127-45 121 29-6 73-21 135-92 135-29 0-46-14-55-35L41 75H-8" id="ba"/><path fill="#333" d="M151-194c95 0 34 128 28 194h-49l25-134c0-29-45-25-59-9C67-111 69-48 56 0H6l36-190h47l-4 32c15-20 33-36 66-36" id="bb"/><g id="n"><use transform="matrix(0.05,0,0,0.05,0,0)" xlink:href="#aV"/><use transform="matrix(0.05,0,0,0.05,12,0)" xlink:href="#aW"/><use transform="matrix(0.05,0,0,0.05,22,0)" xlink:href="#ax"/><use transform="matrix(0.05,0,0,0.05,29,0)" xlink:href="#aX"/><use transform="matrix(0.05,0,0,0.05,34.95,0)" xlink:href="#aY"/><use transform="matrix(0.05,0,0,0.05,39.95,0)" xlink:href="#aZ"/><use transform="matrix(0.05,0,0,0.05,49.95,0)" xlink:href="#aY"/><use transform="matrix(0.05,0,0,0.05,54.95,0)" xlink:href="#ba"/><use transform="matrix(0.05,0,0,0.05,65.9,0)" xlink:href="#aW"/><use transform="matrix(0.05,0,0,0.05,75.9,0)" xlink:href="#bb"/><use transform="matrix(0.05,0,0,0.05,86.85000000000001,0)" xlink:href="#aX"/></g><path fill="#19967d" d="M51-54c-9 22 5 41 31 30L79-1C43 14 10-4 19-52l22-115H19l5-23h22l19-43h21l-9 43h35l-4 23H73" id="bc"/><path fill="#19967d" d="M66-151c12-25 30-51 66-40l-6 26C45-176 58-65 38 0H6l36-190h30" id="bd"/><path fill="#19967d" d="M50-231l6-30h32l-6 30H50zM6 0l37-190h31L37 0H6" id="be"/><path fill="#19967d" d="M67-162c32-53 139-36 121 50C175-51 163 2 97 4 68 4 52-11 42-31 38 6 28 39 22 75H-9l50-265h29c-1 10 0 20-3 28zm89 36c0-26-10-43-35-43-54 0-67 50-69 103-1 29 14 45 42 46 53 0 62-58 62-106" id="bf"/><path fill="#19967d" d="M14 0l48-248h34L48 0H14" id="bg"/><path fill="#19967d" d="M133-28C103 26-5 8 13-77c13-62 24-115 90-117 29-1 46 15 56 35l19-102h32L160 0h-30zM45-64c-2 27 10 43 35 43 54-1 69-50 69-103 0-29-15-46-42-46-53-1-58 58-62 106" id="bh"/><g id="o"><use transform="matrix(0.05,0,0,0.05,0,0)" xlink:href="#bc"/><use transform="matrix(0.05,0,0,0.05,5,0)" xlink:href="#bd"/><use transform="matrix(0.05,0,0,0.05,10.95,0)" xlink:href="#be"/><use transform="matrix(0.05,0,0,0.05,14.899999999999999,0)" xlink:href="#bf"/><use transform="matrix(0.05,0,0,0.05,24.9,0)" xlink:href="#bg"/><use transform="matrix(0.05,0,0,0.05,29.899999999999995,0)" xlink:href="#bh"/></g><path fill="#19967d" d="M67-158c22-48 132-52 116 29L158 0h-32l25-140c3-38-53-32-70-12C52-117 51-52 38 0H6l36-190h30" id="bi"/><path fill="#19967d" d="M111-194c62-3 86 47 72 106H45c-7 38 6 69 45 68 27-1 43-14 53-32l24 11C152-15 129 4 87 4 38 3 12-23 12-71c0-70 32-119 99-123zm44 81c14-66-71-72-95-28-4 8-8 17-11 28h106" id="bj"/><path fill="#19967d" d="M103-194c29 0 47 14 56 36 2-11 5-23 8-32h30L160-5C157 61 82 97 21 62 9 55 4 45 1 30l28-7c7 42 83 31 92-3 4-16 9-38 13-55-13 20-29 36-62 36-40 0-60-25-60-64 0-71 23-131 91-131zm4 24c-53 0-58 54-61 104-2 27 10 44 36 44 49 0 65-50 67-102 1-29-15-46-42-46" id="bk"/><g id="p"><use transform="matrix(0.05,0,0,0.05,0,0)" xlink:href="#be"/><use transform="matrix(0.05,0,0,0.05,3.95,0)" xlink:href="#bi"/><use transform="matrix(0.05,0,0,0.05,13.949999999999998,0)" xlink:href="#bc"/><use transform="matrix(0.05,0,0,0.05,18.95,0)" xlink:href="#bj"/><use transform="matrix(0.05,0,0,0.05,28.950000000000003,0)" xlink:href="#bk"/><use transform="matrix(0.05,0,0,0.05,38.95,0)" xlink:href="#bj"/><use transform="matrix(0.05,0,0,0.05,48.95,0)" xlink:href="#bd"/></g><path fill="#19967d" d="M67 3c-93-2-31-127-26-193h32L48-50c-3 39 53 32 70 12 30-34 30-101 43-152h32L157 0h-30c1-10 6-24 4-33-14 20-29 37-64 36" id="bl"/><path fill="#19967d" d="M55-144c13 50 104 24 104 88C159 21 15 23 1-39l26-10c6 40 102 42 102-4-13-50-104-23-104-87 0-71 143-71 148-8l-29 4c-5-35-85-37-89 0" id="bm"/><g id="q"><use transform="matrix(0.05,0,0,0.05,0,0)" xlink:href="#bl"/><use transform="matrix(0.05,0,0,0.05,10,0)" xlink:href="#bm"/><use transform="matrix(0.05,0,0,0.05,19,0)" xlink:href="#bj"/><use transform="matrix(0.05,0,0,0.05,29,0)" xlink:href="#bd"/><use transform="matrix(0.05,0,0,0.05,34.95,0)" xlink:href="#bg"/><use transform="matrix(0.05,0,0,0.05,39.95,0)" xlink:href="#bh"/></g><path fill="#333" d="M157-208L117 0H65l40-208H25l8-40h212l-8 40h-80" id="bn"/><g id="r"><use transform="matrix(0.05,0,0,0.05,0,0)" xlink:href="#bn"/><use transform="matrix(0.05,0,0,0.05,10.600000000000001,0)" xlink:href="#ax"/><use transform="matrix(0.05,0,0,0.05,17.6,0)" xlink:href="#aY"/><use transform="matrix(0.05,0,0,0.05,22.6,0)" xlink:href="#ba"/></g><path d="M51-54c-9 22 5 41 31 30L79-1C43 14 10-4 19-52l22-115H19l5-23h22l19-43h21l-9 43h35l-4 23H73" id="bo"/><path d="M50-231l6-30h32l-6 30H50zM6 0l37-190h31L37 0H6" id="bp"/><path d="M6 0l50-261h32L37 0H6" id="bq"/><path d="M111-194c62-3 86 47 72 106H45c-7 38 6 69 45 68 27-1 43-14 53-32l24 11C152-15 129 4 87 4 38 3 12-23 12-71c0-70 32-119 99-123zm44 81c14-66-71-72-95-28-4 8-8 17-11 28h106" id="br"/><g id="s"><use transform="matrix(0.05,0,0,0.05,0,0)" xlink:href="#bo"/><use transform="matrix(0.05,0,0,0.05,5,0)" xlink:href="#bp"/><use transform="matrix(0.05,0,0,0.05,8.95,0)" xlink:href="#bo"/><use transform="matrix(0.05,0,0,0.05,13.949999999999998,0)" xlink:href="#bq"/><use transform="matrix(0.05,0,0,0.05,17.9,0)" xlink:href="#br"/></g><path d="M55-144c13 50 104 24 104 88C159 21 15 23 1-39l26-10c6 40 102 42 102-4-13-50-104-23-104-87 0-71 143-71 148-8l-29 4c-5-35-85-37-89 0" id="bs"/><path d="M66-151c12-25 30-51 66-40l-6 26C45-176 58-65 38 0H6l36-190h30" id="bt"/><path d="M67-158c22-48 132-52 116 29L158 0h-32l25-140c3-38-53-32-70-12C52-117 51-52 38 0H6l36-190h30" id="bu"/><path d="M103-194c29 0 47 14 56 36 2-11 5-23 8-32h30L160-5C157 61 82 97 21 62 9 55 4 45 1 30l28-7c7 42 83 31 92-3 4-16 9-38 13-55-13 20-29 36-62 36-40 0-60-25-60-64 0-71 23-131 91-131zm4 24c-53 0-58 54-61 104-2 27 10 44 36 44 49 0 65-50 67-102 1-29-15-46-42-46" id="bv"/><g id="t"><use transform="matrix(0.05,0,0,0.05,0,0)" xlink:href="#bs"/><use transform="matrix(0.05,0,0,0.05,9,0)" xlink:href="#bo"/><use transform="matrix(0.05,0,0,0.05,14,0)" xlink:href="#bt"/><use transform="matrix(0.05,0,0,0.05,19.95,0)" xlink:href="#bp"/><use transform="matrix(0.05,0,0,0.05,23.9,0)" xlink:href="#bu"/><use transform="matrix(0.05,0,0,0.05,33.9,0)" xlink:href="#bv"/></g><g id="u"><use transform="matrix(0.05,0,0,0.05,0,0)" xlink:href="#az"/><use transform="matrix(0.05,0,0,0.05,10,0)" xlink:href="#aI"/><use transform="matrix(0.05,0,0,0.05,20,0)" xlink:href="#aB"/><use transform="matrix(0.05,0,0,0.05,25,0)" xlink:href="#aC"/></g><path fill="#333" d="M198-190L69 30C53 58 25 83-20 72c4-11-1-27 19-22 33-1 43-29 59-52L20-190h32L79-34l84-156h35" id="bw"/><g id="v"><use transform="matrix(0.05,0,0,0.05,0,0)" xlink:href="#az"/><use transform="matrix(0.05,0,0,0.05,10,0)" xlink:href="#aI"/><use transform="matrix(0.05,0,0,0.05,20,0)" xlink:href="#aB"/><use transform="matrix(0.05,0,0,0.05,25,0)" xlink:href="#aC"/><use transform="matrix(0.05,0,0,0.05,35,0)" xlink:href="#aN"/><use transform="matrix(0.05,0,0,0.05,45,0)" xlink:href="#aA"/><use transform="matrix(0.05,0,0,0.05,55,0)" xlink:href="#aK"/><use transform="matrix(0.05,0,0,0.05,58.95,0)" xlink:href="#bw"/></g><path d="M165-48c-4 18 1 34 23 27l-3 20c-29 8-62 0-52-35h-2C116-14 99 4 63 4 30 4 8-16 8-49c0-68 71-67 138-67 10-26 0-56-31-54-26 1-42 9-47 31l-32-5c8-67 160-71 144 15-5 28-9 54-15 81zM42-50c3 52 80 24 89-6 7-12 7-24 11-38-47 1-103-4-100 44" id="bx"/><path d="M151-220L108 0H75l42-220H32l6-28h203l-5 28h-85" id="by"/><path d="M248-111c6-24 9-61-24-58-72 9-57 108-77 169h-31l26-142c3-37-50-30-64-10C52-115 50-51 37 0H6l36-190h30c-1 10-6 24-4 32 13-43 101-52 105 5 13-22 29-41 61-41 90 0 28 129 23 194h-31" id="bz"/><g id="w"><use transform="matrix(0.05,0,0,0.05,0,0)" xlink:href="#bs"/><use transform="matrix(0.05,0,0,0.05,9,0)" xlink:href="#bo"/><use transform="matrix(0.05,0,0,0.05,14,0)" xlink:href="#bx"/><use transform="matrix(0.05,0,0,0.05,24,0)" xlink:href="#bt"/><use transform="matrix(0.05,0,0,0.05,29.950000000000003,0)" xlink:href="#bo"/><use transform="matrix(0.05,0,0,0.05,34.95,0)" xlink:href="#bp"/><use transform="matrix(0.05,0,0,0.05,38.900000000000006,0)" xlink:href="#bu"/><use transform="matrix(0.05,0,0,0.05,48.900000000000006,0)" xlink:href="#bv"/><use transform="matrix(0.05,0,0,0.05,58.900000000000006,0)" xlink:href="#by"/><use transform="matrix(0.05,0,0,0.05,69.7,0)" xlink:href="#bp"/><use transform="matrix(0.05,0,0,0.05,73.65,0)" xlink:href="#bz"/><use transform="matrix(0.05,0,0,0.05,88.60000000000001,0)" xlink:href="#br"/></g><path fill="#333" d="M44-68c0 29 11 47 38 47 30 0 42-19 51-41l28 9C148-21 126 4 82 4 31 4 10-29 12-85c3-77 74-140 146-93 12 8 15 23 18 40l-31 5c-1-22-13-36-36-36-52 0-65 49-65 101" id="bA"/><path fill="#333" d="M125-24c46 0 70-25 89-51l25 16C214-24 183 4 123 4 8 4-5-146 60-208c32-50 158-61 191-5 5 7 9 14 11 22l-32 10c-9-28-33-43-69-43-74 0-108 51-108 125 0 46 24 75 72 75" id="bB"/><g id="x"><use transform="matrix(0.05,0,0,0.05,0,0)" xlink:href="#aK"/><use transform="matrix(0.05,0,0,0.05,3.95,0)" xlink:href="#aN"/><use transform="matrix(0.05,0,0,0.05,13.949999999999998,0)" xlink:href="#bA"/><use transform="matrix(0.05,0,0,0.05,22.95,0)" xlink:href="#aI"/><use transform="matrix(0.05,0,0,0.05,32.95,0)" xlink:href="#aB"/><use transform="matrix(0.05,0,0,0.05,37.95,0)" xlink:href="#ay"/><use transform="matrix(0.05,0,0,0.05,41.900000000000006,0)" xlink:href="#aN"/><use transform="matrix(0.05,0,0,0.05,51.900000000000006,0)" xlink:href="#aA"/><use transform="matrix(0.05,0,0,0.05,61.900000000000006,0)" xlink:href="#bB"/><use transform="matrix(0.05,0,0,0.05,74.85000000000001,0)" xlink:href="#ay"/><use transform="matrix(0.05,0,0,0.05,78.80000000000001,0)" xlink:href="#aB"/><use transform="matrix(0.05,0,0,0.05,83.80000000000001,0)" xlink:href="#bw"/></g><path d="M30-147c31-64 166-65 159 27C183-49 158 1 86 4 9 8 1-88 30-147zM88-20c53 0 68-48 68-100 0-31-11-51-44-50-52 1-68 46-68 97 0 32 13 53 44 53" id="bC"/><path d="M44-68c0 29 11 47 38 47 30 0 42-19 51-41l28 9C148-21 126 4 82 4 31 4 10-29 12-85c3-77 74-140 146-93 12 8 15 23 18 40l-31 5c-1-22-13-36-36-36-52 0-65 49-65 101" id="bD"/><path d="M238-179c0 84-86 86-175 82L45 0H11l48-248c82 0 179-12 179 69zm-34 1c0-53-64-42-116-43l-19 98c63 0 135 9 135-55" id="bE"/><path d="M89 0H52L20-190h33L74-25l89-165h34" id="bF"/><g id="y"><use transform="matrix(0.05,0,0,0.05,0,0)" xlink:href="#bq"/><use transform="matrix(0.05,0,0,0.05,3.95,0)" xlink:href="#bC"/><use transform="matrix(0.05,0,0,0.05,13.949999999999998,0)" xlink:href="#bD"/><use transform="matrix(0.05,0,0,0.05,22.95,0)" xlink:href="#bx"/><use transform="matrix(0.05,0,0,0.05,32.95,0)" xlink:href="#bo"/><use transform="matrix(0.05,0,0,0.05,37.95,0)" xlink:href="#bp"/><use transform="matrix(0.05,0,0,0.05,41.900000000000006,0)" xlink:href="#bC"/><use transform="matrix(0.05,0,0,0.05,51.900000000000006,0)" xlink:href="#bu"/><use transform="matrix(0.05,0,0,0.05,61.900000000000006,0)" xlink:href="#bE"/><use transform="matrix(0.05,0,0,0.05,73.9,0)" xlink:href="#bt"/><use transform="matrix(0.05,0,0,0.05,79.85000000000001,0)" xlink:href="#bC"/><use transform="matrix(0.05,0,0,0.05,89.85000000000001,0)" xlink:href="#bF"/><use transform="matrix(0.05,0,0,0.05,98.85000000000001,0)" xlink:href="#bp"/><use transform="matrix(0.05,0,0,0.05,102.80000000000001,0)" xlink:href="#bu"/><use transform="matrix(0.05,0,0,0.05,112.80000000000001,0)" xlink:href="#bD"/><use transform="matrix(0.05,0,0,0.05,121.80000000000001,0)" xlink:href="#br"/></g><path d="M248-139C247-14 144 9 11 0l48-248c105-6 190 8 189 109zm-34 0c1-70-52-87-126-82L50-27c98 7 163-21 164-112" id="bG"/><g id="z"><use transform="matrix(0.05,0,0,0.05,0,0)" xlink:href="#bq"/><use transform="matrix(0.05,0,0,0.05,3.95,0)" xlink:href="#bC"/><use transform="matrix(0.05,0,0,0.05,13.949999999999998,0)" xlink:href="#bD"/><use transform="matrix(0.05,0,0,0.05,22.95,0)" xlink:href="#bx"/><use transform="matrix(0.05,0,0,0.05,32.95,0)" xlink:href="#bo"/><use transform="matrix(0.05,0,0,0.05,37.95,0)" xlink:href="#bp"/><use transform="matrix(0.05,0,0,0.05,41.900000000000006,0)" xlink:href="#bC"/><use transform="matrix(0.05,0,0,0.05,51.900000000000006,0)" xlink:href="#bu"/><use transform="matrix(0.05,0,0,0.05,61.900000000000006,0)" xlink:href="#bG"/><use transform="matrix(0.05,0,0,0.05,74.85000000000001,0)" xlink:href="#br"/><use transform="matrix(0.05,0,0,0.05,84.85000000000001,0)" xlink:href="#bo"/><use transform="matrix(0.05,0,0,0.05,89.85000000000001,0)" xlink:href="#bx"/><use transform="matrix(0.05,0,0,0.05,99.85000000000001,0)" xlink:href="#bp"/><use transform="matrix(0.05,0,0,0.05,103.80000000000001,0)" xlink:href="#bq"/><use transform="matrix(0.05,0,0,0.05,107.75,0)" xlink:href="#bs"/></g><path d="M67-162c32-53 139-36 121 50C175-51 163 2 97 4 68 4 52-11 42-31 38 6 28 39 22 75H-9l50-265h29c-1 10 0 20-3 28zm89 36c0-26-10-43-35-43-54 0-67 50-69 103-1 29 14 45 42 46 53 0 62-58 62-106" id="bH"/><g id="A"><use transform="matrix(0.05,0,0,0.05,0,0)" xlink:href="#bH"/><use transform="matrix(0.05,0,0,0.05,10,0)" xlink:href="#bt"/><use transform="matrix(0.05,0,0,0.05,15.949999999999998,0)" xlink:href="#br"/><use transform="matrix(0.05,0,0,0.05,25.950000000000003,0)" xlink:href="#bD"/><use transform="matrix(0.05,0,0,0.05,34.95,0)" xlink:href="#bp"/><use transform="matrix(0.05,0,0,0.05,38.900000000000006,0)" xlink:href="#bs"/><use transform="matrix(0.05,0,0,0.05,47.900000000000006,0)" xlink:href="#br"/></g><path d="M68-162c25-46 127-43 121 31C183-60 169 1 98 4 69 5 53-11 43-31L36 0H5l52-261h31zm88 36c2-27-9-43-34-43-55 0-70 51-70 103 0 29 15 45 43 46 52 0 58-58 61-106" id="bI"/><g id="B"><use transform="matrix(0.05,0,0,0.05,0,0)" xlink:href="#bI"/><use transform="matrix(0.05,0,0,0.05,10,0)" xlink:href="#bC"/><use transform="matrix(0.05,0,0,0.05,20,0)" xlink:href="#bC"/><use transform="matrix(0.05,0,0,0.05,30,0)" xlink:href="#bq"/><use transform="matrix(0.05,0,0,0.05,33.95,0)" xlink:href="#br"/><use transform="matrix(0.05,0,0,0.05,43.95,0)" xlink:href="#bx"/><use transform="matrix(0.05,0,0,0.05,53.95,0)" xlink:href="#bu"/></g><path d="M67 3c-93-2-31-127-26-193h32L48-50c-3 39 53 32 70 12 30-34 30-101 43-152h32L157 0h-30c1-10 6-24 4-33-14 20-29 37-64 36" id="bJ"/><path d="M133-28C103 26-5 8 13-77c13-62 24-115 90-117 29-1 46 15 56 35l19-102h32L160 0h-30zM45-64c-2 27 10 43 35 43 54-1 69-50 69-103 0-29-15-46-42-46-53-1-58 58-62 106" id="bK"/><g id="C"><use transform="matrix(0.05,0,0,0.05,0,0)" xlink:href="#bq"/><use transform="matrix(0.05,0,0,0.05,3.95,0)" xlink:href="#bx"/><use transform="matrix(0.05,0,0,0.05,13.949999999999998,0)" xlink:href="#bo"/><use transform="matrix(0.05,0,0,0.05,18.95,0)" xlink:href="#bp"/><use transform="matrix(0.05,0,0,0.05,22.9,0)" xlink:href="#bo"/><use transform="matrix(0.05,0,0,0.05,27.899999999999995,0)" xlink:href="#bJ"/><use transform="matrix(0.05,0,0,0.05,37.9,0)" xlink:href="#bK"/><use transform="matrix(0.05,0,0,0.05,47.9,0)" xlink:href="#br"/></g><path d="M76-167L44 0H12l33-167H18l4-23h27c3-47 25-81 82-69l-4 24c-35-8-44 15-46 45h37l-5 23H76" id="bL"/><g id="D"><use transform="matrix(0.05,0,0,0.05,0,0)" xlink:href="#bL"/><use transform="matrix(0.05,0,0,0.05,5,0)" xlink:href="#bq"/><use transform="matrix(0.05,0,0,0.05,8.95,0)" xlink:href="#bC"/><use transform="matrix(0.05,0,0,0.05,18.95,0)" xlink:href="#bx"/><use transform="matrix(0.05,0,0,0.05,28.950000000000003,0)" xlink:href="#bo"/></g><g id="E"><use transform="matrix(0.05,0,0,0.05,0,0)" xlink:href="#bq"/><use transform="matrix(0.05,0,0,0.05,3.95,0)" xlink:href="#bC"/><use transform="matrix(0.05,0,0,0.05,13.949999999999998,0)" xlink:href="#bu"/><use transform="matrix(0.05,0,0,0.05,23.95,0)" xlink:href="#bv"/><use transform="matrix(0.05,0,0,0.05,33.95,0)" xlink:href="#bp"/><use transform="matrix(0.05,0,0,0.05,37.900000000000006,0)" xlink:href="#bo"/><use transform="matrix(0.05,0,0,0.05,42.900000000000006,0)" xlink:href="#bJ"/><use transform="matrix(0.05,0,0,0.05,52.900000000000006,0)" xlink:href="#bK"/><use transform="matrix(0.05,0,0,0.05,62.900000000000006,0)" xlink:href="#br"/></g><path d="M67-158c15-20 31-36 64-36 94 0 33 127 27 194h-32l25-140c3-38-53-32-70-12C52-117 51-51 37 0H6l51-261h31" id="bM"/><path d="M180 0L97-118 63-96 45 0H11l48-248h34L69-126c44-43 94-81 141-122h43L121-137 219 0h-39" id="bN"/><path d="M222 0l43-216c-8 16-17 34-26 49L143 0h-22L81-216 41 0H11l48-248h42l38 208 116-208h45L252 0h-30" id="bO"/><g id="F"><use transform="matrix(0.05,0,0,0.05,0,0)" xlink:href="#bq"/><use transform="matrix(0.05,0,0,0.05,3.95,0)" xlink:href="#br"/><use transform="matrix(0.05,0,0,0.05,13.949999999999998,0)" xlink:href="#bu"/><use transform="matrix(0.05,0,0,0.05,23.95,0)" xlink:href="#bv"/><use transform="matrix(0.05,0,0,0.05,33.95,0)" xlink:href="#bo"/><use transform="matrix(0.05,0,0,0.05,38.95,0)" xlink:href="#bM"/><use transform="matrix(0.05,0,0,0.05,48.95,0)" xlink:href="#bN"/><use transform="matrix(0.05,0,0,0.05,60.95,0)" xlink:href="#bO"/></g><g id="G"><use transform="matrix(0.05,0,0,0.05,0,0)" xlink:href="#bp"/><use transform="matrix(0.05,0,0,0.05,3.95,0)" xlink:href="#bu"/><use transform="matrix(0.05,0,0,0.05,13.949999999999998,0)" xlink:href="#bo"/><use transform="matrix(0.05,0,0,0.05,18.95,0)" xlink:href="#br"/><use transform="matrix(0.05,0,0,0.05,28.950000000000003,0)" xlink:href="#bv"/><use transform="matrix(0.05,0,0,0.05,38.95,0)" xlink:href="#br"/><use transform="matrix(0.05,0,0,0.05,48.95,0)" xlink:href="#bt"/></g><path d="M187 0l-14-72H61L19 0h-37l149-248h38L221 0h-34zm-19-99l-22-123L76-99h92" id="bP"/><path d="M188 0h-37l-8-164L71 0H34L18-190h31l8 164 75-164h34l8 164 74-164h31" id="bQ"/><g id="H"><use transform="matrix(0.05,0,0,0.05,0,0)" xlink:href="#bu"/><use transform="matrix(0.05,0,0,0.05,10,0)" xlink:href="#bJ"/><use transform="matrix(0.05,0,0,0.05,20,0)" xlink:href="#bz"/><use transform="matrix(0.05,0,0,0.05,34.95,0)" xlink:href="#bE"/><use transform="matrix(0.05,0,0,0.05,46.95,0)" xlink:href="#br"/><use transform="matrix(0.05,0,0,0.05,56.95,0)" xlink:href="#bC"/><use transform="matrix(0.05,0,0,0.05,66.95,0)" xlink:href="#bH"/><use transform="matrix(0.05,0,0,0.05,76.95,0)" xlink:href="#bq"/><use transform="matrix(0.05,0,0,0.05,80.9,0)" xlink:href="#br"/><use transform="matrix(0.05,0,0,0.05,90.9,0)" xlink:href="#bP"/><use transform="matrix(0.05,0,0,0.05,102.9,0)" xlink:href="#bq"/><use transform="matrix(0.05,0,0,0.05,106.85000000000001,0)" xlink:href="#bq"/><use transform="matrix(0.05,0,0,0.05,110.80000000000001,0)" xlink:href="#bC"/><use transform="matrix(0.05,0,0,0.05,120.80000000000001,0)" xlink:href="#bQ"/><use transform="matrix(0.05,0,0,0.05,133.75,0)" xlink:href="#br"/><use transform="matrix(0.05,0,0,0.05,143.75,0)" xlink:href="#bK"/></g><path d="M198-190L69 30C53 58 25 83-20 72c4-11-1-27 19-22 33-1 43-29 59-52L20-190h32L79-34l84-156h35" id="bR"/><path d="M219-77C219 17 104-2 11 0l48-248c73 2 169-15 169 57 0 38-24 54-60 60 29 5 51 21 51 54zm-26-111c0-44-62-31-105-33l-16 79c55 0 121 9 121-46zm-7 110c-1-49-69-36-119-38L50-27c61-1 137 12 136-51" id="bS"/><path d="M127 0L80-88 50-66 37 0H6l51-261h31L57-100l99-90h39l-93 82L161 0h-34" id="bT"/><g id="I"><use transform="matrix(0.05,0,0,0.05,0,0)" xlink:href="#bo"/><use transform="matrix(0.05,0,0,0.05,5,0)" xlink:href="#bR"/><use transform="matrix(0.05,0,0,0.05,14,0)" xlink:href="#bH"/><use transform="matrix(0.05,0,0,0.05,24,0)" xlink:href="#br"/><use transform="matrix(0.05,0,0,0.05,34,0)" xlink:href="#bS"/><use transform="matrix(0.05,0,0,0.05,46,0)" xlink:href="#bp"/><use transform="matrix(0.05,0,0,0.05,49.95,0)" xlink:href="#bT"/><use transform="matrix(0.05,0,0,0.05,58.95,0)" xlink:href="#br"/></g><g id="J"><use transform="matrix(0.05,0,0,0.05,0,0)" xlink:href="#bK"/><use transform="matrix(0.05,0,0,0.05,10,0)" xlink:href="#br"/><use transform="matrix(0.05,0,0,0.05,20,0)" xlink:href="#bs"/><use transform="matrix(0.05,0,0,0.05,29,0)" xlink:href="#bD"/><use transform="matrix(0.05,0,0,0.05,38,0)" xlink:href="#bt"/><use transform="matrix(0.05,0,0,0.05,43.95,0)" xlink:href="#bp"/><use transform="matrix(0.05,0,0,0.05,47.900000000000006,0)" xlink:href="#bH"/><use transform="matrix(0.05,0,0,0.05,57.900000000000006,0)" xlink:href="#bo"/><use transform="matrix(0.05,0,0,0.05,62.900000000000006,0)" xlink:href="#bp"/><use transform="matrix(0.05,0,0,0.05,66.85000000000001,0)" xlink:href="#bC"/><use transform="matrix(0.05,0,0,0.05,76.85000000000001,0)" xlink:href="#bu"/></g><path d="M124 0L87-78 21 0h-35l86-98-46-92h33l34 74 61-74h37l-83 92 50 98h-34" id="bU"/><g id="K"><use transform="matrix(0.05,0,0,0.05,0,0)" xlink:href="#bo"/><use transform="matrix(0.05,0,0,0.05,5,0)" xlink:href="#br"/><use transform="matrix(0.05,0,0,0.05,15,0)" xlink:href="#bU"/><use transform="matrix(0.05,0,0,0.05,24,0)" xlink:href="#bo"/></g><g id="L"><use transform="matrix(0.05,0,0,0.05,0,0)" xlink:href="#bo"/><use transform="matrix(0.05,0,0,0.05,5,0)" xlink:href="#br"/><use transform="matrix(0.05,0,0,0.05,15,0)" xlink:href="#bz"/><use transform="matrix(0.05,0,0,0.05,29.950000000000003,0)" xlink:href="#bH"/><use transform="matrix(0.05,0,0,0.05,39.95,0)" xlink:href="#bC"/></g><path fill="#a9afb8" d="M67-125c0 53 21 87 73 88 37 1 54-22 65-47l45 17C233-25 199 4 140 4 58 4 20-42 15-125 8-235 124-281 211-232c18 10 29 29 36 50l-46 12c-8-25-30-41-62-41-52 0-71 34-72 86" id="bV"/><path fill="#a9afb8" d="M123 10C108 53 80 86 19 72V37c35 8 53-11 59-39L3-190h52l48 148c12-52 28-100 44-148h51" id="bW"/><path fill="#a9afb8" d="M190-63c-7 42-38 67-86 67-59 0-84-38-90-98-12-110 154-137 174-36l-49 2c-2-19-15-32-35-32-30 0-35 28-38 64-6 74 65 87 74 30" id="bX"/><path fill="#a9afb8" d="M25 0v-261h50V0H25" id="bY"/><path fill="#a9afb8" d="M185-48c-13 30-37 53-82 52C43 2 14-33 14-96s30-98 90-98c62 0 83 45 84 108H66c0 31 8 55 39 56 18 0 30-7 34-22zm-45-69c5-46-57-63-70-21-2 6-4 13-4 21h74" id="bZ"/><g id="M"><use transform="matrix(0.0728395061728395,0,0,0.0728395061728395,0,0)" xlink:href="#bV"/><use transform="matrix(0.0728395061728395,0,0,0.0728395061728395,18.86543209876543,0)" xlink:href="#bW"/><use transform="matrix(0.0728395061728395,0,0,0.0728395061728395,33.43333333333333,0)" xlink:href="#bX"/><use transform="matrix(0.0728395061728395,0,0,0.0728395061728395,48.00123456790123,0)" xlink:href="#bY"/><use transform="matrix(0.0728395061728395,0,0,0.0728395061728395,55.28518518518518,0)" xlink:href="#bZ"/></g><path fill="#a9afb8" d="M230 0l2-204L168 0h-37L68-204 70 0H24v-248h70l56 185 57-185h69V0h-46" id="ca"/><path fill="#a9afb8" d="M133-34C117-15 103 5 69 4 32 3 11-16 11-54c-1-60 55-63 116-61 1-26-3-47-28-47-18 1-26 9-28 27l-52-2c7-38 36-58 82-57s74 22 75 68l1 82c-1 14 12 18 25 15v27c-30 8-71 5-69-32zm-48 3c29 0 43-24 42-57-32 0-66-3-65 30 0 17 8 27 23 27" id="cb"/><path fill="#a9afb8" d="M115-3C79 11 28 4 28-45v-112H4v-33h27l15-45h31v45h36v33H77v99c-1 23 16 31 38 25v30" id="cc"/><g id="N"><use transform="matrix(0.0728395061728395,0,0,0.0728395061728395,0,0)" xlink:href="#ca"/><use transform="matrix(0.0728395061728395,0,0,0.0728395061728395,21.77901234567901,0)" xlink:href="#cb"/><use transform="matrix(0.0728395061728395,0,0,0.0728395061728395,36.34691358024691,0)" xlink:href="#cc"/><use transform="matrix(0.0728395061728395,0,0,0.0728395061728395,45.01481481481481,0)" xlink:href="#bZ"/></g><path fill="#a9afb8" d="M24-248c120-7 223 5 221 122C244-46 201 0 124 0H24v-248zM76-40c74 7 117-18 117-86 0-67-45-88-117-82v168" id="cd"/><path fill="#a9afb8" d="M135-194c52 0 70 43 70 98 0 56-19 99-73 100-30 1-46-15-58-35L72 0H24l1-261h50v104c11-23 29-37 60-37zM114-30c31 0 40-27 40-66 0-37-7-63-39-63s-41 28-41 65c0 36 8 64 40 64" id="ce"/><path fill="#a9afb8" d="M137-138c1-29-70-34-71-4 15 46 118 7 119 86 1 83-164 76-172 9l43-7c4 19 20 25 44 25 33 8 57-30 24-41C81-84 22-81 20-136c-2-80 154-74 161-7" id="cf"/><g id="O"><use transform="matrix(0.0728395061728395,0,0,0.0728395061728395,0,0)" xlink:href="#cd"/><use transform="matrix(0.0728395061728395,0,0,0.0728395061728395,18.86543209876543,0)" xlink:href="#cb"/><use transform="matrix(0.0728395061728395,0,0,0.0728395061728395,33.43333333333333,0)" xlink:href="#cc"/><use transform="matrix(0.0728395061728395,0,0,0.0728395061728395,42.10123456790124,0)" xlink:href="#cb"/><use transform="matrix(0.0728395061728395,0,0,0.0728395061728395,56.66913580246913,0)" xlink:href="#ce"/><use transform="matrix(0.0728395061728395,0,0,0.0728395061728395,72.62098765432098,0)" xlink:href="#cb"/><use transform="matrix(0.0728395061728395,0,0,0.0728395061728395,87.18888888888888,0)" xlink:href="#cf"/><use transform="matrix(0.0728395061728395,0,0,0.0728395061728395,101.75679012345678,0)" xlink:href="#bZ"/></g><path fill="#a9afb8" d="M190 0L58-211 59 0H30v-248h39L202-35l-2-213h31V0h-41" id="cg"/><path fill="#a9afb8" d="M24-231v-30h32v30H24zM24 0v-190h32V0H24" id="ch"/><path fill="#a9afb8" d="M117-194c89-4 53 116 60 194h-32v-121c0-31-8-49-39-48C34-167 62-67 57 0H25l-1-190h30c1 10-1 24 2 32 11-22 29-35 61-36" id="ci"/><path fill="#a9afb8" d="M141-36C126-15 110 5 73 4 37 3 15-17 15-53c-1-64 63-63 125-63 3-35-9-54-41-54-24 1-41 7-42 31l-33-3c5-37 33-52 76-52 45 0 72 20 72 64v82c-1 20 7 32 28 27v20c-31 9-61-2-59-35zM48-53c0 20 12 33 32 33 41-3 63-29 60-74-43 2-92-5-92 41" id="cj"/><g id="P"><use transform="matrix(0.04248971193415638,0,0,0.04248971193415638,0,0)" xlink:href="#cg"/><use transform="matrix(0.04248971193415638,0,0,0.04248971193415638,11.004835390946502,0)" xlink:href="#ch"/><use transform="matrix(0.04248971193415638,0,0,0.04248971193415638,14.361522633744855,0)" xlink:href="#ci"/><use transform="matrix(0.04248971193415638,0,0,0.04248971193415638,22.85946502057613,0)" xlink:href="#cj"/></g><path fill="#a9afb8" d="M108 0H70L1-190h34L89-25l56-165h34" id="ck"/><g id="Q"><use transform="matrix(0.04248971193415638,0,0,0.04248971193415638,0,0)" xlink:href="#ck"/><use transform="matrix(0.04248971193415638,0,0,0.04248971193415638,7.648148148148148,0)" xlink:href="#cj"/><use transform="matrix(0.04248971193415638,0,0,0.04248971193415638,16.14609053497942,0)" xlink:href="#ci"/></g><path fill="#a9afb8" d="M30 0v-248h187v28H63v79h144v27H63v87h162V0H30" id="cl"/><path fill="#a9afb8" d="M135-143c-3-34-86-38-87 0 15 53 115 12 119 90S17 21 10-45l28-5c4 36 97 45 98 0-10-56-113-15-118-90-4-57 82-63 122-42 12 7 21 19 24 35" id="cm"/><g id="R"><use transform="matrix(0.04248971193415638,0,0,0.04248971193415638,0,0)" xlink:href="#cl"/><use transform="matrix(0.04248971193415638,0,0,0.04248971193415638,10.19753086419753,0)" xlink:href="#cm"/></g><path fill="#a9afb8" d="M32 76v-337h29V76H32" id="cn"/><use transform="matrix(0.04248971193415638,0,0,0.04248971193415638,0,0)" xlink:href="#cn" id="S"/><path fill="#a9afb8" d="M205 0l-28-72H64L36 0H1l101-248h38L239 0h-34zm-38-99l-47-123c-12 45-31 82-46 123h93" id="co"/><path fill="#a9afb8" d="M84 4C-5 8 30-112 23-190h32v120c0 31 7 50 39 49 72-2 45-101 50-169h31l1 190h-30c-1-10 1-25-2-33-11 22-28 36-60 37" id="cp"/><path fill="#a9afb8" d="M177-190C167-65 218 103 67 71c-23-6-38-20-44-43l32-5c15 47 100 32 89-28v-30C133-14 115 1 83 1 29 1 15-40 15-95c0-56 16-97 71-98 29-1 48 16 59 35 1-10 0-23 2-32h30zM94-22c36 0 50-32 50-73 0-42-14-75-50-75-39 0-46 34-46 75s6 73 46 73" id="cq"/><path fill="#a9afb8" d="M59-47c-2 24 18 29 38 22v24C64 9 27 4 27-40v-127H5v-23h24l9-43h21v43h35v23H59v120" id="cr"/><g id="T"><use transform="matrix(0.04248971193415638,0,0,0.04248971193415638,0,0)" xlink:href="#co"/><use transform="matrix(0.04248971193415638,0,0,0.04248971193415638,10.19753086419753,0)" xlink:href="#cp"/><use transform="matrix(0.04248971193415638,0,0,0.04248971193415638,18.695473251028805,0)" xlink:href="#cq"/><use transform="matrix(0.04248971193415638,0,0,0.04248971193415638,27.193415637860078,0)" xlink:href="#cp"/><use transform="matrix(0.04248971193415638,0,0,0.04248971193415638,35.691358024691354,0)" xlink:href="#cm"/><use transform="matrix(0.04248971193415638,0,0,0.04248971193415638,43.3395061728395,0)" xlink:href="#cr"/></g><path fill="#a9afb8" d="M101-251c82-7 93 87 43 132L82-64C71-53 59-42 53-27h129V0H18c2-99 128-94 128-182 0-28-16-43-45-43s-46 15-49 41l-32-3c6-41 34-60 81-64" id="cs"/><path fill="#a9afb8" d="M27 0v-27h64v-190l-56 39v-29l58-41h29v221h61V0H27" id="ct"/><path fill="#a9afb8" d="M68-38c1 34 0 65-14 84H32c9-13 17-26 17-46H33v-38h35" id="cu"/><g id="U"><use transform="matrix(0.04248971193415638,0,0,0.04248971193415638,0,0)" xlink:href="#cs"/><use transform="matrix(0.04248971193415638,0,0,0.04248971193415638,8.497942386831275,0)" xlink:href="#ct"/><use transform="matrix(0.04248971193415638,0,0,0.04248971193415638,16.99588477366255,0)" xlink:href="#cu"/></g><path fill="#a9afb8" d="M101-251c68 0 85 55 85 127S166 4 100 4C33 4 14-52 14-124c0-73 17-127 87-127zm-1 229c47 0 54-49 54-102s-4-102-53-102c-51 0-55 48-55 102 0 53 5 102 54 102" id="cv"/><g id="V"><use transform="matrix(0.04248971193415638,0,0,0.04248971193415638,0,0)" xlink:href="#cs"/><use transform="matrix(0.04248971193415638,0,0,0.04248971193415638,8.497942386831275,0)" xlink:href="#cv"/><use transform="matrix(0.04248971193415638,0,0,0.04248971193415638,16.99588477366255,0)" xlink:href="#cs"/><use transform="matrix(0.04248971193415638,0,0,0.04248971193415638,25.493827160493822,0)" xlink:href="#cv"/></g><path fill="#333" d="M101-251c68 0 85 55 85 127S166 4 100 4C33 4 14-52 14-124c0-73 17-127 87-127zm-1 229c47 0 54-49 54-102s-4-102-53-102c-51 0-55 48-55 102 0 53 5 102 54 102" id="cw"/><path fill="#333" d="M33 0v-38h34V0H33" id="cx"/><path fill="#333" d="M190 0L58-211 59 0H30v-248h39L202-35l-2-213h31V0h-41" id="cy"/><g id="W"><use transform="matrix(0.05,0,0,0.05,0,0)" xlink:href="#cw"/><use transform="matrix(0.05,0,0,0.05,10,0)" xlink:href="#cx"/><use transform="matrix(0.05,0,0,0.05,15,0)" xlink:href="#cx"/><use transform="matrix(0.05,0,0,0.05,20,0)" xlink:href="#cy"/></g><path fill="#333" d="M27 0v-27h64v-190l-56 39v-29l58-41h29v221h61V0H27" id="cz"/><use transform="matrix(0.05,0,0,0.05,0,0)" xlink:href="#cz" id="X"/><path fill="#333" d="M232-93c-1 65-40 97-104 97C67 4 28-28 28-90v-158h33c8 89-33 224 67 224 102 0 64-133 71-224h33v155" id="cA"/><path fill="#333" d="M135-143c-3-34-86-38-87 0 15 53 115 12 119 90S17 21 10-45l28-5c4 36 97 45 98 0-10-56-113-15-118-90-4-57 82-63 122-42 12 7 21 19 24 35" id="cB"/><path fill="#333" d="M100-194c63 0 86 42 84 106H49c0 40 14 67 53 68 26 1 43-12 49-29l28 8c-11 28-37 45-77 45C44 4 14-33 15-96c1-61 26-98 85-98zm52 81c6-60-76-77-97-28-3 7-6 17-6 28h103" id="cC"/><path fill="#333" d="M114-163C36-179 61-72 57 0H25l-1-190h30c1 12-1 29 2 39 6-27 23-49 58-41v29" id="cD"/><g id="Y"><use transform="matrix(0.05,0,0,0.05,0,0)" xlink:href="#cA"/><use transform="matrix(0.05,0,0,0.05,12.950000000000001,0)" xlink:href="#cB"/><use transform="matrix(0.05,0,0,0.05,21.950000000000003,0)" xlink:href="#cC"/><use transform="matrix(0.05,0,0,0.05,31.950000000000003,0)" xlink:href="#cD"/></g><path fill="#333" d="M115-194c53 0 69 39 70 98 0 66-23 100-70 100C84 3 66-7 56-30L54 0H23l1-261h32v101c10-23 28-34 59-34zm-8 174c40 0 45-34 45-75 0-40-5-75-45-74-42 0-51 32-51 76 0 43 10 73 51 73" id="cE"/><path fill="#333" d="M24 0v-261h32V0H24" id="cF"/><path fill="#333" d="M100-194c62-1 85 37 85 99 1 63-27 99-86 99S16-35 15-95c0-66 28-99 85-99zM99-20c44 1 53-31 53-75 0-43-8-75-51-75s-53 32-53 75 10 74 51 75" id="cG"/><path fill="#333" d="M117-194c89-4 53 116 60 194h-32v-121c0-31-8-49-39-48C34-167 62-67 57 0H25l-1-190h30c1 10-1 24 2 32 11-22 29-35 61-36" id="cH"/><path fill="#333" d="M177-190C167-65 218 103 67 71c-23-6-38-20-44-43l32-5c15 47 100 32 89-28v-30C133-14 115 1 83 1 29 1 15-40 15-95c0-56 16-97 71-98 29-1 48 16 59 35 1-10 0-23 2-32h30zM94-22c36 0 50-32 50-73 0-42-14-75-50-75-39 0-46 34-46 75s6 73 46 73" id="cI"/><g id="Z"><use transform="matrix(0.05,0,0,0.05,0,0)" xlink:href="#cE"/><use transform="matrix(0.05,0,0,0.05,10,0)" xlink:href="#cC"/><use transform="matrix(0.05,0,0,0.05,20,0)" xlink:href="#cF"/><use transform="matrix(0.05,0,0,0.05,23.95,0)" xlink:href="#cG"/><use transform="matrix(0.05,0,0,0.05,33.95,0)" xlink:href="#cH"/><use transform="matrix(0.05,0,0,0.05,43.95,0)" xlink:href="#cI"/><use transform="matrix(0.05,0,0,0.05,53.95,0)" xlink:href="#cB"/></g><path fill="#333" d="M59-47c-2 24 18 29 38 22v24C64 9 27 4 27-40v-127H5v-23h24l9-43h21v43h35v23H59v120" id="cJ"/><g id="aa"><use transform="matrix(0.05,0,0,0.05,0,0)" xlink:href="#cJ"/><use transform="matrix(0.05,0,0,0.05,5,0)" xlink:href="#cG"/></g><path fill="#333" d="M210-169c-67 3-38 105-44 169h-31v-121c0-29-5-50-35-48C34-165 62-65 56 0H25l-1-190h30c1 10-1 24 2 32 10-44 99-50 107 0 11-21 27-35 58-36 85-2 47 119 55 194h-31v-121c0-29-5-49-35-48" id="cK"/><path fill="#333" d="M141-36C126-15 110 5 73 4 37 3 15-17 15-53c-1-64 63-63 125-63 3-35-9-54-41-54-24 1-41 7-42 31l-33-3c5-37 33-52 76-52 45 0 72 20 72 64v82c-1 20 7 32 28 27v20c-31 9-61-2-59-35zM48-53c0 20 12 33 32 33 41-3 63-29 60-74-43 2-92-5-92 41" id="cL"/><path fill="#333" d="M179-190L93 31C79 59 56 82 12 73V49c39 6 53-20 64-50L1-190h34L92-34l54-156h33" id="cM"/><g id="ab"><use transform="matrix(0.05,0,0,0.05,0,0)" xlink:href="#cK"/><use transform="matrix(0.05,0,0,0.05,14.950000000000001,0)" xlink:href="#cL"/><use transform="matrix(0.05,0,0,0.05,24.950000000000003,0)" xlink:href="#cH"/><use transform="matrix(0.05,0,0,0.05,34.95,0)" xlink:href="#cM"/></g><path fill="#333" d="M127-220V0H93v-220H8v-28h204v28h-85" id="cN"/><path fill="#333" d="M24-231v-30h32v30H24zM24 0v-190h32V0H24" id="cO"/><path fill="#333" d="M115-194c55 1 70 41 70 98S169 2 115 4C84 4 66-9 55-30l1 105H24l-1-265h31l2 30c10-21 28-34 59-34zm-8 174c40 0 45-34 45-75s-6-73-45-74c-42 0-51 32-51 76 0 43 10 73 51 73" id="cP"/><g id="ac"><use transform="matrix(0.05,0,0,0.05,0,0)" xlink:href="#cN"/><use transform="matrix(0.05,0,0,0.05,10.3,0)" xlink:href="#cD"/><use transform="matrix(0.05,0,0,0.05,16.25,0)" xlink:href="#cO"/><use transform="matrix(0.05,0,0,0.05,20.2,0)" xlink:href="#cP"/></g><g id="ad"><use transform="matrix(0.05,0,0,0.05,0,0)" xlink:href="#cN"/><use transform="matrix(0.05,0,0,0.05,10.3,0)" xlink:href="#cD"/><use transform="matrix(0.05,0,0,0.05,16.25,0)" xlink:href="#cO"/><use transform="matrix(0.05,0,0,0.05,20.2,0)" xlink:href="#cP"/></g><g id="ae"><use transform="matrix(0.05,0,0,0.05,0,0)" xlink:href="#cA"/><use transform="matrix(0.05,0,0,0.05,12.950000000000001,0)" xlink:href="#cB"/><use transform="matrix(0.05,0,0,0.05,21.950000000000003,0)" xlink:href="#cC"/><use transform="matrix(0.05,0,0,0.05,31.950000000000003,0)" xlink:href="#cD"/></g><path fill="#333" d="M39-94c74 12-11 154 75 146v23c-44 4-70-10-70-52C44-23 55-84 6-82v-22c81 4-7-162 84-157h24v23c-82-15-2 131-75 144" id="cQ"/><path fill="#333" d="M106-169C34-169 62-67 57 0H25v-261h32l-1 103c12-21 28-36 61-36 89 0 53 116 60 194h-32v-121c2-32-8-49-39-48" id="cR"/><path fill="#333" d="M84 4C-5 8 30-112 23-190h32v120c0 31 7 50 39 49 72-2 45-101 50-169h31l1 190h-30c-1-10 1-25-2-33-11 22-28 36-60 37" id="cS"/><g id="af"><use transform="matrix(0.05,0,0,0.05,0,0)" xlink:href="#cQ"/><use transform="matrix(0.05,0,0,0.05,6,0)" xlink:href="#cJ"/><use transform="matrix(0.05,0,0,0.05,11,0)" xlink:href="#cR"/><use transform="matrix(0.05,0,0,0.05,21,0)" xlink:href="#cD"/><use transform="matrix(0.05,0,0,0.05,26.950000000000003,0)" xlink:href="#cG"/><use transform="matrix(0.05,0,0,0.05,36.95,0)" xlink:href="#cS"/><use transform="matrix(0.05,0,0,0.05,46.95,0)" xlink:href="#cI"/><use transform="matrix(0.05,0,0,0.05,56.95,0)" xlink:href="#cR"/></g><path fill="#333" d="M30-248c87 1 191-15 191 75 0 78-77 80-158 76V0H30v-248zm33 125c57 0 124 11 124-50 0-59-68-47-124-48v98" id="cT"/><path fill="#333" d="M96-169c-40 0-48 33-48 73s9 75 48 75c24 0 41-14 43-38l32 2c-6 37-31 61-74 61-59 0-76-41-82-99-10-93 101-131 147-64 4 7 5 14 7 22l-32 3c-4-21-16-35-41-35" id="cU"/><path fill="#333" d="M76-40C78 24 84 88 6 75V52C86 64 9-79 80-94c-40-6-34-59-34-106 1-29-11-41-40-38v-23c44-4 70 10 70 52 0 47-12 108 38 105v22c-26 1-39 14-38 42" id="cV"/><g id="ag"><use transform="matrix(0.05,0,0,0.05,0,0)" xlink:href="#cT"/><use transform="matrix(0.05,0,0,0.05,12,0)" xlink:href="#cL"/><use transform="matrix(0.05,0,0,0.05,22,0)" xlink:href="#cD"/><use transform="matrix(0.05,0,0,0.05,27.950000000000003,0)" xlink:href="#cJ"/><use transform="matrix(0.05,0,0,0.05,32.95,0)" xlink:href="#cO"/><use transform="matrix(0.05,0,0,0.05,36.900000000000006,0)" xlink:href="#cU"/><use transform="matrix(0.05,0,0,0.05,45.900000000000006,0)" xlink:href="#cO"/><use transform="matrix(0.05,0,0,0.05,49.85000000000001,0)" xlink:href="#cP"/><use transform="matrix(0.05,0,0,0.05,59.85,0)" xlink:href="#cL"/><use transform="matrix(0.05,0,0,0.05,69.85000000000001,0)" xlink:href="#cH"/><use transform="matrix(0.05,0,0,0.05,79.85000000000001,0)" xlink:href="#cJ"/><use transform="matrix(0.05,0,0,0.05,84.85000000000001,0)" xlink:href="#cV"/></g><g id="ah"><use transform="matrix(0.05,0,0,0.05,0,0)" xlink:href="#cR"/><use transform="matrix(0.05,0,0,0.05,10,0)" xlink:href="#cL"/><use transform="matrix(0.05,0,0,0.05,20,0)" xlink:href="#cB"/></g><g id="ai"><use transform="matrix(0.05,0,0,0.05,0,0)" xlink:href="#cA"/><use transform="matrix(0.05,0,0,0.05,12.950000000000001,0)" xlink:href="#cB"/><use transform="matrix(0.05,0,0,0.05,21.950000000000003,0)" xlink:href="#cC"/><use transform="matrix(0.05,0,0,0.05,31.950000000000003,0)" xlink:href="#cD"/></g><path fill="#333" d="M124-194c51 0 84 22 84 74C207-44 167 4 94 4 43 4 11-23 11-74c0-74 41-120 113-120zM99-30c46 0 58-42 58-86 0-27-11-44-37-44-44 0-55 40-57 84-1 27 10 45 36 46" id="cW"/><g id="aj"><use transform="matrix(0.05,0,0,0.05,0,0)" xlink:href="#bn"/><use transform="matrix(0.05,0,0,0.05,10.3,0)" xlink:href="#cW"/><use transform="matrix(0.05,0,0,0.05,21.25,0)" xlink:href="#ba"/><use transform="matrix(0.05,0,0,0.05,32.2,0)" xlink:href="#aY"/><use transform="matrix(0.05,0,0,0.05,37.2,0)" xlink:href="#aZ"/></g><g id="ak"><use transform="matrix(0.05,0,0,0.05,0,0)" xlink:href="#aB"/><use transform="matrix(0.05,0,0,0.05,5,0)" xlink:href="#ay"/><use transform="matrix(0.05,0,0,0.05,8.95,0)" xlink:href="#aB"/><use transform="matrix(0.05,0,0,0.05,13.949999999999998,0)" xlink:href="#aK"/><use transform="matrix(0.05,0,0,0.05,17.9,0)" xlink:href="#aC"/></g><g id="al"><use transform="matrix(0.05,0,0,0.05,0,0)" xlink:href="#bA"/><use transform="matrix(0.05,0,0,0.05,9,0)" xlink:href="#aN"/><use transform="matrix(0.05,0,0,0.05,19,0)" xlink:href="#aA"/><use transform="matrix(0.05,0,0,0.05,29,0)" xlink:href="#aB"/><use transform="matrix(0.05,0,0,0.05,34,0)" xlink:href="#aC"/><use transform="matrix(0.05,0,0,0.05,44,0)" xlink:href="#aA"/><use transform="matrix(0.05,0,0,0.05,54,0)" xlink:href="#aB"/></g><path fill="#333" d="M62-99C39-31 123 0 170-40s38-139 58-208h34C234-144 253 4 115 4 49 4 18-43 31-112l26-136h34" id="cX"/><g id="am"><use transform="matrix(0.05,0,0,0.05,0,0)" xlink:href="#ay"/><use transform="matrix(0.05,0,0,0.05,3.95,0)" xlink:href="#aJ"/><use transform="matrix(0.05,0,0,0.05,18.900000000000002,0)" xlink:href="#aI"/><use transform="matrix(0.05,0,0,0.05,28.900000000000002,0)" xlink:href="#aD"/><use transform="matrix(0.05,0,0,0.05,38.900000000000006,0)" xlink:href="#aC"/><use transform="matrix(0.05,0,0,0.05,48.900000000000006,0)" xlink:href="#cX"/><use transform="matrix(0.05,0,0,0.05,61.85,0)" xlink:href="#aE"/><use transform="matrix(0.05,0,0,0.05,67.80000000000001,0)" xlink:href="#aK"/></g><g id="an"><use transform="matrix(0.05,0,0,0.05,0,0)" xlink:href="#cN"/><use transform="matrix(0.05,0,0,0.05,8.950000000000001,0)" xlink:href="#cG"/><use transform="matrix(0.05,0,0,0.05,18.950000000000003,0)" xlink:href="#cP"/><use transform="matrix(0.05,0,0,0.05,28.950000000000003,0)" xlink:href="#cO"/><use transform="matrix(0.05,0,0,0.05,32.900000000000006,0)" xlink:href="#cU"/></g><g id="ao"><use transform="matrix(0.05,0,0,0.05,0,0)" xlink:href="#cN"/><use transform="matrix(0.05,0,0,0.05,8.950000000000001,0)" xlink:href="#cG"/><use transform="matrix(0.05,0,0,0.05,18.950000000000003,0)" xlink:href="#cP"/><use transform="matrix(0.05,0,0,0.05,28.950000000000003,0)" xlink:href="#cO"/><use transform="matrix(0.05,0,0,0.05,32.900000000000006,0)" xlink:href="#cU"/></g><path fill="#333" d="M258-177c0 46-32 67-71 75L235 0h-57l-41-94H76L58 0H6l48-248c89 2 204-19 204 71zm-53 3c0-46-63-30-107-33l-14 73c51-2 120 13 121-40" id="cY"/><path fill="#333" d="M6 0l51-261h49L55 0H6" id="cZ"/><path fill="#333" d="M100 10C77 47 50 87-15 72l7-35c37 9 51-18 65-41L20-190h51L89-44l73-146h53" id="da"/><g id="ap"><use transform="matrix(0.05,0,0,0.05,0,0)" xlink:href="#cY"/><use transform="matrix(0.05,0,0,0.05,12.950000000000001,0)" xlink:href="#aw"/><use transform="matrix(0.05,0,0,0.05,22.950000000000003,0)" xlink:href="#ba"/><use transform="matrix(0.05,0,0,0.05,33.900000000000006,0)" xlink:href="#cZ"/><use transform="matrix(0.05,0,0,0.05,38.900000000000006,0)" xlink:href="#da"/></g><path fill="#19967d" d="M30-147c31-64 166-65 159 27C183-49 158 1 86 4 9 8 1-88 30-147zM88-20c53 0 68-48 68-100 0-31-11-51-44-50-52 1-68 46-68 97 0 32 13 53 44 53" id="db"/><path fill="#19967d" d="M44-68c0 29 11 47 38 47 30 0 42-19 51-41l28 9C148-21 126 4 82 4 31 4 10-29 12-85c3-77 74-140 146-93 12 8 15 23 18 40l-31 5c-1-22-13-36-36-36-52 0-65 49-65 101" id="dc"/><g id="aq"><use transform="matrix(0.05,0,0,0.05,0,0)" xlink:href="#bc"/><use transform="matrix(0.05,0,0,0.05,5,0)" xlink:href="#db"/><use transform="matrix(0.05,0,0,0.05,15,0)" xlink:href="#bf"/><use transform="matrix(0.05,0,0,0.05,25,0)" xlink:href="#be"/><use transform="matrix(0.05,0,0,0.05,28.950000000000003,0)" xlink:href="#dc"/><use transform="matrix(0.05,0,0,0.05,37.95,0)" xlink:href="#bg"/><use transform="matrix(0.05,0,0,0.05,42.95,0)" xlink:href="#bh"/></g><path fill="#333" d="M233-177c-1 41-23 64-60 70L243 0h-38l-65-103H63V0H30v-248c88 3 205-21 203 71zM63-129c60-2 137 13 137-47 0-61-80-42-137-45v92" id="dd"/><g id="ar"><use transform="matrix(0.05,0,0,0.05,0,0)" xlink:href="#dd"/><use transform="matrix(0.05,0,0,0.05,12.950000000000001,0)" xlink:href="#cC"/><use transform="matrix(0.05,0,0,0.05,22.950000000000003,0)" xlink:href="#cP"/><use transform="matrix(0.05,0,0,0.05,32.95,0)" xlink:href="#cF"/><use transform="matrix(0.05,0,0,0.05,36.900000000000006,0)" xlink:href="#cM"/></g><g id="as"><use transform="matrix(0.05,0,0,0.05,0,0)" xlink:href="#dd"/><use transform="matrix(0.05,0,0,0.05,12.950000000000001,0)" xlink:href="#cC"/><use transform="matrix(0.05,0,0,0.05,22.950000000000003,0)" xlink:href="#cP"/><use transform="matrix(0.05,0,0,0.05,32.95,0)" xlink:href="#cF"/><use transform="matrix(0.05,0,0,0.05,36.900000000000006,0)" xlink:href="#cM"/></g><g id="at"><use transform="matrix(0.05,0,0,0.05,0,0)" xlink:href="#cN"/><use transform="matrix(0.05,0,0,0.05,8.950000000000001,0)" xlink:href="#cG"/><use transform="matrix(0.05,0,0,0.05,18.950000000000003,0)" xlink:href="#cP"/><use transform="matrix(0.05,0,0,0.05,28.950000000000003,0)" xlink:href="#cO"/><use transform="matrix(0.05,0,0,0.05,32.900000000000006,0)" xlink:href="#cU"/></g></defs></g></svg>